%TF.GenerationSoftware,KiCad,Pcbnew,9.0.4*%
%TF.CreationDate,2025-11-25T15:00:47-03:00*%
%TF.ProjectId,Conversor Boost-MCC. Andr__ Nicollas e Vinicius,436f6e76-6572-4736-9f72-20426f6f7374,rev?*%
%TF.SameCoordinates,Original*%
%TF.FileFunction,Copper,L2,Bot*%
%TF.FilePolarity,Positive*%
%FSLAX46Y46*%
G04 Gerber Fmt 4.6, Leading zero omitted, Abs format (unit mm)*
G04 Created by KiCad (PCBNEW 9.0.4) date 2025-11-25 15:00:47*
%MOMM*%
%LPD*%
G01*
G04 APERTURE LIST*
G04 Aperture macros list*
%AMRoundRect*
0 Rectangle with rounded corners*
0 $1 Rounding radius*
0 $2 $3 $4 $5 $6 $7 $8 $9 X,Y pos of 4 corners*
0 Add a 4 corners polygon primitive as box body*
4,1,4,$2,$3,$4,$5,$6,$7,$8,$9,$2,$3,0*
0 Add four circle primitives for the rounded corners*
1,1,$1+$1,$2,$3*
1,1,$1+$1,$4,$5*
1,1,$1+$1,$6,$7*
1,1,$1+$1,$8,$9*
0 Add four rect primitives between the rounded corners*
20,1,$1+$1,$2,$3,$4,$5,0*
20,1,$1+$1,$4,$5,$6,$7,0*
20,1,$1+$1,$6,$7,$8,$9,0*
20,1,$1+$1,$8,$9,$2,$3,0*%
G04 Aperture macros list end*
%TA.AperFunction,EtchedComponent*%
%ADD10C,0.000000*%
%TD*%
%TA.AperFunction,ComponentPad*%
%ADD11C,3.000000*%
%TD*%
%TA.AperFunction,ComponentPad*%
%ADD12RoundRect,0.250000X0.550000X-0.550000X0.550000X0.550000X-0.550000X0.550000X-0.550000X-0.550000X0*%
%TD*%
%TA.AperFunction,ComponentPad*%
%ADD13C,1.600000*%
%TD*%
%TA.AperFunction,ComponentPad*%
%ADD14C,2.540000*%
%TD*%
%TA.AperFunction,ComponentPad*%
%ADD15O,1.905000X2.000000*%
%TD*%
%TA.AperFunction,ComponentPad*%
%ADD16C,1.905000*%
%TD*%
%TA.AperFunction,ComponentPad*%
%ADD17C,1.440000*%
%TD*%
%TA.AperFunction,ComponentPad*%
%ADD18RoundRect,0.250000X0.550000X0.550000X-0.550000X0.550000X-0.550000X-0.550000X0.550000X-0.550000X0*%
%TD*%
%TA.AperFunction,ComponentPad*%
%ADD19C,1.500000*%
%TD*%
%TA.AperFunction,ComponentPad*%
%ADD20R,1.500000X1.500000*%
%TD*%
%TA.AperFunction,ComponentPad*%
%ADD21C,3.500000*%
%TD*%
%TA.AperFunction,SMDPad,CuDef*%
%ADD22C,2.000000*%
%TD*%
%TA.AperFunction,Conductor*%
%ADD23C,1.000000*%
%TD*%
%TA.AperFunction,Conductor*%
%ADD24C,2.000000*%
%TD*%
G04 APERTURE END LIST*
D10*
%TA.AperFunction,EtchedComponent*%
%TO.C,NT1*%
G36*
X105500000Y-22500000D02*
G01*
X101500000Y-22500000D01*
X101500000Y-20500000D01*
X105500000Y-20500000D01*
X105500000Y-22500000D01*
G37*
%TD.AperFunction*%
%TD*%
D11*
%TO.P,D1,2,A*%
%TO.N,/Dreno*%
X78500000Y-35000000D03*
%TO.P,D1,1,K*%
%TO.N,+24V*%
X93750000Y-35000000D03*
%TD*%
D12*
%TO.P,C1,1*%
%TO.N,+24V*%
X84000000Y-28402651D03*
D13*
%TO.P,C1,2*%
%TO.N,GNDPWR*%
X84000000Y-23402651D03*
%TD*%
%TO.P,C2,2*%
%TO.N,GNDPWR*%
X94000000Y-23402651D03*
D12*
%TO.P,C2,1*%
%TO.N,+24V*%
X94000000Y-28402651D03*
%TD*%
D14*
%TO.P,J3,2,Pin_2*%
%TO.N,GNDPWR*%
X68000000Y-23000000D03*
%TO.P,J3,1,Pin_1*%
%TO.N,+24V*%
X63000000Y-23000000D03*
%TD*%
D15*
%TO.P,Q1,3,S*%
%TO.N,GNDPWR*%
X85420000Y-41000000D03*
D16*
%TO.P,Q1,2,G*%
%TO.N,/Driver*%
X90500000Y-41000000D03*
D15*
%TO.P,Q1,1,D*%
%TO.N,/Dreno*%
X87960000Y-41000000D03*
%TD*%
D17*
%TO.P,RV1,3,3*%
%TO.N,GND*%
X123370000Y-53500000D03*
%TO.P,RV1,2,2*%
%TO.N,Net-(U1-IN)*%
X120830000Y-53500000D03*
%TO.P,RV1,1,1*%
%TO.N,Net-(U1-V_REF)*%
X118290000Y-53500000D03*
%TD*%
D13*
%TO.P,R1,2*%
%TO.N,Net-(R1-Pad2)*%
X129870000Y-44580000D03*
%TO.P,R1,1*%
%TO.N,Net-(U1-RT)*%
X129870000Y-34420000D03*
%TD*%
%TO.P,U1,16,V_REF*%
%TO.N,Net-(U1-V_REF)*%
X116250000Y-47200000D03*
%TO.P,U1,15,V_IN*%
%TO.N,+15V*%
X116250000Y-44660000D03*
%TO.P,U1,14,Eb*%
%TO.N,GND*%
X116250000Y-42120000D03*
%TO.P,U1,13,Cb*%
%TO.N,Net-(Q2-B)*%
X116250000Y-39580000D03*
%TO.P,U1,12,Ea*%
X116250000Y-37040000D03*
%TO.P,U1,11,Ca*%
%TO.N,GND*%
X116250000Y-34500000D03*
%TO.P,U1,10,S/D*%
%TO.N,unconnected-(U1-S{slash}D-Pad10)*%
X116250000Y-31960000D03*
%TO.P,U1,9,COMP*%
%TO.N,Net-(U1-COMP)*%
X116250000Y-29420000D03*
%TO.P,U1,8,GND*%
%TO.N,GND*%
X123870000Y-29420000D03*
%TO.P,U1,7,CT*%
%TO.N,Net-(U1-CT)*%
X123870000Y-31960000D03*
%TO.P,U1,6,RT*%
%TO.N,Net-(U1-RT)*%
X123870000Y-34500000D03*
%TO.P,U1,5,CLSENSE-*%
%TO.N,GND*%
X123870000Y-37040000D03*
%TO.P,U1,4,CLSENSE+*%
X123870000Y-39580000D03*
%TO.P,U1,3,OSC_OUT*%
%TO.N,unconnected-(U1-OSC_OUT-Pad3)*%
X123870000Y-42120000D03*
%TO.P,U1,2,IN*%
%TO.N,Net-(U1-IN)*%
X123870000Y-44660000D03*
D18*
%TO.P,U1,1,INV_IN*%
%TO.N,Net-(U1-COMP)*%
X123870000Y-47200000D03*
%TD*%
D13*
%TO.P,R4,2*%
%TO.N,/Driver*%
X106870000Y-47580000D03*
%TO.P,R4,1*%
%TO.N,Net-(Q2-E)*%
X106870000Y-37420000D03*
%TD*%
%TO.P,R2,2*%
%TO.N,GND*%
X134370000Y-34420000D03*
%TO.P,R2,1*%
%TO.N,Net-(R1-Pad2)*%
X134370000Y-44580000D03*
%TD*%
%TO.P,R3,2*%
%TO.N,Net-(Q2-B)*%
X111870000Y-37500000D03*
%TO.P,R3,1*%
%TO.N,+15V*%
X111870000Y-47660000D03*
%TD*%
D14*
%TO.P,J2,2,Pin_2*%
%TO.N,GND*%
X132870000Y-50500000D03*
%TO.P,J2,1,Pin_1*%
%TO.N,+15V*%
X132870000Y-55500000D03*
%TD*%
D13*
%TO.P,C3,2*%
%TO.N,GND*%
X134370000Y-30500000D03*
%TO.P,C3,1*%
%TO.N,Net-(U1-CT)*%
X129370000Y-30500000D03*
%TD*%
D19*
%TO.P,Q3,3,E*%
%TO.N,Net-(Q2-E)*%
X104580000Y-32480000D03*
%TO.P,Q3,2,B*%
%TO.N,Net-(Q2-B)*%
X107120000Y-32480000D03*
D20*
%TO.P,Q3,1,C*%
%TO.N,+15V*%
X109660000Y-32480000D03*
%TD*%
D19*
%TO.P,Q2,3,E*%
%TO.N,Net-(Q2-E)*%
X104540000Y-25980000D03*
%TO.P,Q2,2,B*%
%TO.N,Net-(Q2-B)*%
X107080000Y-25980000D03*
D20*
%TO.P,Q2,1,C*%
%TO.N,GND*%
X109620000Y-25980000D03*
%TD*%
D21*
%TO.P,L1,1,1*%
%TO.N,/Dreno*%
X63000000Y-31750000D03*
%TO.P,L1,2,2*%
%TO.N,+12V*%
X43000000Y-31750000D03*
%TD*%
D14*
%TO.P,J1,1,Pin_1*%
%TO.N,+12V*%
X50000000Y-23000000D03*
%TO.P,J1,2,Pin_2*%
%TO.N,GNDPWR*%
X55000000Y-23000000D03*
%TD*%
D22*
%TO.P,NT1,1,1*%
%TO.N,GND*%
X105500000Y-21500000D03*
%TO.P,NT1,2,2*%
%TO.N,GNDPWR*%
X101500000Y-21500000D03*
%TD*%
D23*
%TO.N,+15V*%
X109660000Y-41540000D02*
X111245000Y-43125000D01*
X109660000Y-32480000D02*
X109660000Y-41540000D01*
D24*
%TO.N,/Dreno*%
X87000000Y-43500000D02*
X87960000Y-42540000D01*
X87960000Y-42540000D02*
X87960000Y-41000000D01*
X78500000Y-42000000D02*
X80000000Y-43500000D01*
X80000000Y-43500000D02*
X87000000Y-43500000D01*
X78500000Y-35000000D02*
X78500000Y-42000000D01*
%TO.N,+12V*%
X50000000Y-24750000D02*
X43000000Y-31750000D01*
X50000000Y-23000000D02*
X50000000Y-24750000D01*
%TO.N,/Dreno*%
X75250000Y-31750000D02*
X65000000Y-31750000D01*
X75250000Y-31750000D02*
X78500000Y-35000000D01*
%TO.N,+24V*%
X84000000Y-28402651D02*
X68402651Y-28402651D01*
X68402651Y-28402651D02*
X63000000Y-23000000D01*
D23*
%TO.N,/Driver*%
X97580000Y-47580000D02*
X106870000Y-47580000D01*
X91000000Y-41000000D02*
X97580000Y-47580000D01*
D24*
%TO.N,+24V*%
X84000000Y-28402651D02*
X94000000Y-28402651D01*
X96000000Y-33000000D02*
X96000000Y-30402651D01*
X96000000Y-30402651D02*
X94000000Y-28402651D01*
X93750000Y-35000000D02*
X94000000Y-35000000D01*
X94000000Y-35000000D02*
X96000000Y-33000000D01*
D23*
%TO.N,GND*%
X118049000Y-42120000D02*
X118669000Y-41500000D01*
X118669000Y-41500000D02*
X118669000Y-35500000D01*
X116250000Y-42120000D02*
X118049000Y-42120000D01*
%TO.N,Net-(U1-CT)*%
X129370000Y-30500000D02*
X127870000Y-30500000D01*
X127870000Y-30500000D02*
X126410000Y-31960000D01*
%TO.N,GND*%
X118669000Y-35500000D02*
X117669000Y-34500000D01*
X117669000Y-34500000D02*
X116250000Y-34500000D01*
%TO.N,Net-(U1-CT)*%
X126410000Y-31960000D02*
X123870000Y-31960000D01*
%TO.N,Net-(U1-RT)*%
X123870000Y-34500000D02*
X129790000Y-34500000D01*
%TO.N,Net-(U1-IN)*%
X123870000Y-44660000D02*
X125530000Y-44660000D01*
%TO.N,Net-(U1-COMP)*%
X120870000Y-45500000D02*
X120870000Y-32500000D01*
%TO.N,+15V*%
X111870000Y-47660000D02*
X111870000Y-53500000D01*
%TO.N,Net-(U1-IN)*%
X120830000Y-53500000D02*
X124330000Y-50000000D01*
X124030000Y-44500000D02*
X123870000Y-44660000D01*
%TO.N,+15V*%
X111870000Y-53500000D02*
X114870000Y-56500000D01*
X129870000Y-55500000D02*
X132870000Y-55500000D01*
X114870000Y-56500000D02*
X128870000Y-56500000D01*
%TO.N,Net-(R1-Pad2)*%
X134370000Y-44580000D02*
X130030000Y-44580000D01*
%TO.N,Net-(U1-IN)*%
X126370000Y-45500000D02*
X126370000Y-49500000D01*
X125530000Y-44660000D02*
X126370000Y-45500000D01*
%TO.N,Net-(U1-COMP)*%
X122570000Y-47200000D02*
X120870000Y-45500000D01*
%TO.N,Net-(U1-RT)*%
X123950000Y-34580000D02*
X123870000Y-34500000D01*
%TO.N,Net-(U1-IN)*%
X125870000Y-50000000D02*
X126370000Y-49500000D01*
%TO.N,Net-(Q2-B)*%
X116250000Y-39580000D02*
X116250000Y-37040000D01*
%TO.N,Net-(U1-COMP)*%
X123870000Y-47200000D02*
X122570000Y-47200000D01*
X120870000Y-32500000D02*
X117790000Y-29420000D01*
%TO.N,Net-(U1-RT)*%
X129790000Y-34500000D02*
X129870000Y-34580000D01*
%TO.N,+15V*%
X128870000Y-56500000D02*
X129870000Y-55500000D01*
%TO.N,Net-(U1-V_REF)*%
X118290000Y-53500000D02*
X118290000Y-49240000D01*
%TO.N,Net-(R1-Pad2)*%
X130030000Y-44580000D02*
X129870000Y-44740000D01*
%TO.N,Net-(U1-IN)*%
X124330000Y-50000000D02*
X125870000Y-50000000D01*
%TO.N,Net-(U1-V_REF)*%
X118290000Y-49240000D02*
X116250000Y-47200000D01*
%TO.N,Net-(U1-COMP)*%
X117790000Y-29420000D02*
X116250000Y-29420000D01*
%TO.N,Net-(Q2-B)*%
X112330000Y-37040000D02*
X111870000Y-37500000D01*
X107120000Y-32480000D02*
X107120000Y-28250000D01*
X114620000Y-37040000D02*
X112330000Y-37040000D01*
X116250000Y-37040000D02*
X114620000Y-37040000D01*
%TO.N,Net-(Q2-E)*%
X106870000Y-37420000D02*
X106870000Y-34770000D01*
%TO.N,+15V*%
X112780000Y-44660000D02*
X111245000Y-43125000D01*
X116250000Y-44660000D02*
X113210000Y-44660000D01*
X113210000Y-44660000D02*
X112780000Y-44660000D01*
%TO.N,Net-(Q2-E)*%
X106870000Y-34770000D02*
X104580000Y-32480000D01*
%TO.N,Net-(Q2-B)*%
X107120000Y-28250000D02*
X107120000Y-26020000D01*
%TO.N,Net-(Q2-E)*%
X104580000Y-32480000D02*
X104580000Y-26020000D01*
%TO.N,+15V*%
X111870000Y-47660000D02*
X111870000Y-43750000D01*
X111870000Y-43750000D02*
X111245000Y-43125000D01*
%TO.N,Net-(Q2-B)*%
X108620000Y-29750000D02*
X107120000Y-28250000D01*
X112120000Y-34250000D02*
X112120000Y-31250000D01*
X114620000Y-36750000D02*
X112120000Y-34250000D01*
X112120000Y-31250000D02*
X110620000Y-29750000D01*
X110620000Y-29750000D02*
X108620000Y-29750000D01*
X114620000Y-37040000D02*
X114620000Y-36750000D01*
%TD*%
%TA.AperFunction,Conductor*%
%TO.N,GND*%
G36*
X137442539Y-18520185D02*
G01*
X137488294Y-18572989D01*
X137499500Y-18624500D01*
X137499500Y-58375500D01*
X137479815Y-58442539D01*
X137427011Y-58488294D01*
X137375500Y-58499500D01*
X104124000Y-58499500D01*
X104056961Y-58479815D01*
X104011206Y-58427011D01*
X104000000Y-58375500D01*
X104000000Y-49204500D01*
X104019685Y-49137461D01*
X104072489Y-49091706D01*
X104124000Y-49080500D01*
X105834717Y-49080500D01*
X105896717Y-49097113D01*
X106071943Y-49198280D01*
X106071948Y-49198282D01*
X106071951Y-49198284D01*
X106290007Y-49288606D01*
X106517986Y-49349693D01*
X106751989Y-49380500D01*
X106751996Y-49380500D01*
X106988004Y-49380500D01*
X106988011Y-49380500D01*
X107222014Y-49349693D01*
X107449993Y-49288606D01*
X107668049Y-49198284D01*
X107872450Y-49080273D01*
X108059699Y-48936592D01*
X108226592Y-48769699D01*
X108370273Y-48582450D01*
X108481559Y-48389697D01*
X108488284Y-48378050D01*
X108488284Y-48378048D01*
X108578606Y-48159993D01*
X108639693Y-47932014D01*
X108670500Y-47698011D01*
X108670500Y-47461989D01*
X108639693Y-47227986D01*
X108578606Y-47000007D01*
X108488284Y-46781951D01*
X108488282Y-46781948D01*
X108488280Y-46781943D01*
X108446118Y-46708918D01*
X108370273Y-46577550D01*
X108311001Y-46500306D01*
X108226593Y-46390302D01*
X108226587Y-46390295D01*
X108059704Y-46223412D01*
X108059697Y-46223406D01*
X107872454Y-46079730D01*
X107872453Y-46079729D01*
X107872450Y-46079727D01*
X107746622Y-46007080D01*
X107668056Y-45961719D01*
X107668045Y-45961714D01*
X107449993Y-45871394D01*
X107222010Y-45810306D01*
X106988020Y-45779501D01*
X106988017Y-45779500D01*
X106988011Y-45779500D01*
X106751989Y-45779500D01*
X106751983Y-45779500D01*
X106751979Y-45779501D01*
X106517989Y-45810306D01*
X106290006Y-45871394D01*
X106071954Y-45961714D01*
X106071943Y-45961719D01*
X105896717Y-46062887D01*
X105834717Y-46079500D01*
X104124000Y-46079500D01*
X104056961Y-46059815D01*
X104011206Y-46007011D01*
X104000000Y-45955500D01*
X104000000Y-34321389D01*
X104019685Y-34254350D01*
X104072489Y-34208595D01*
X104141647Y-34198651D01*
X104205203Y-34227676D01*
X104211681Y-34233708D01*
X105333181Y-35355208D01*
X105366666Y-35416531D01*
X105369500Y-35442889D01*
X105369500Y-36384717D01*
X105352887Y-36446717D01*
X105251719Y-36621943D01*
X105251714Y-36621954D01*
X105161394Y-36840006D01*
X105100306Y-37067989D01*
X105069501Y-37301979D01*
X105069500Y-37301995D01*
X105069500Y-37538004D01*
X105069501Y-37538020D01*
X105100306Y-37772010D01*
X105161394Y-37999993D01*
X105251714Y-38218045D01*
X105251719Y-38218056D01*
X105322677Y-38340957D01*
X105369727Y-38422450D01*
X105369729Y-38422453D01*
X105369730Y-38422454D01*
X105513406Y-38609697D01*
X105513412Y-38609704D01*
X105680295Y-38776587D01*
X105680302Y-38776593D01*
X105687285Y-38781951D01*
X105867550Y-38920273D01*
X105998918Y-38996118D01*
X106071943Y-39038280D01*
X106071948Y-39038282D01*
X106071951Y-39038284D01*
X106290007Y-39128606D01*
X106517986Y-39189693D01*
X106751989Y-39220500D01*
X106751996Y-39220500D01*
X106988004Y-39220500D01*
X106988011Y-39220500D01*
X107222014Y-39189693D01*
X107449993Y-39128606D01*
X107668049Y-39038284D01*
X107872450Y-38920273D01*
X107960014Y-38853083D01*
X108025183Y-38827889D01*
X108093628Y-38841927D01*
X108143617Y-38890741D01*
X108159500Y-38951459D01*
X108159500Y-41658097D01*
X108196446Y-41891368D01*
X108269433Y-42115996D01*
X108376657Y-42326434D01*
X108515484Y-42517511D01*
X110333181Y-44335208D01*
X110366666Y-44396531D01*
X110369500Y-44422889D01*
X110369500Y-46624717D01*
X110352887Y-46686717D01*
X110251719Y-46861943D01*
X110251714Y-46861954D01*
X110161394Y-47080006D01*
X110100306Y-47307989D01*
X110069501Y-47541979D01*
X110069500Y-47541995D01*
X110069500Y-47778004D01*
X110069501Y-47778020D01*
X110100306Y-48012010D01*
X110161394Y-48239993D01*
X110223403Y-48389697D01*
X110251716Y-48458049D01*
X110352887Y-48633282D01*
X110369500Y-48695281D01*
X110369500Y-53618097D01*
X110406446Y-53851368D01*
X110479433Y-54075996D01*
X110551104Y-54216657D01*
X110586657Y-54286434D01*
X110725483Y-54477510D01*
X113892490Y-57644518D01*
X114012419Y-57731651D01*
X114083567Y-57783343D01*
X114182991Y-57834002D01*
X114294003Y-57890566D01*
X114294005Y-57890566D01*
X114294008Y-57890568D01*
X114414412Y-57929689D01*
X114518631Y-57963553D01*
X114751903Y-58000500D01*
X114751908Y-58000500D01*
X128988097Y-58000500D01*
X129221368Y-57963553D01*
X129445992Y-57890568D01*
X129656434Y-57783343D01*
X129847510Y-57644517D01*
X130455209Y-57036819D01*
X130516532Y-57003334D01*
X130542890Y-57000500D01*
X131108166Y-57000500D01*
X131175205Y-57020185D01*
X131195847Y-57036819D01*
X131369738Y-57210711D01*
X131369744Y-57210716D01*
X131605871Y-57391903D01*
X131863625Y-57540717D01*
X131863626Y-57540717D01*
X131863629Y-57540719D01*
X132046947Y-57616651D01*
X132138603Y-57654617D01*
X132138604Y-57654617D01*
X132138606Y-57654618D01*
X132426097Y-57731651D01*
X132721184Y-57770500D01*
X132721191Y-57770500D01*
X133018809Y-57770500D01*
X133018816Y-57770500D01*
X133313903Y-57731651D01*
X133601394Y-57654618D01*
X133876371Y-57540719D01*
X134134129Y-57391903D01*
X134370257Y-57210715D01*
X134580715Y-57000257D01*
X134761903Y-56764129D01*
X134910719Y-56506371D01*
X135024618Y-56231394D01*
X135101651Y-55943903D01*
X135140500Y-55648816D01*
X135140500Y-55351184D01*
X135101651Y-55056097D01*
X135024618Y-54768606D01*
X134910719Y-54493629D01*
X134901413Y-54477511D01*
X134761903Y-54235871D01*
X134580716Y-53999744D01*
X134580710Y-53999737D01*
X134370262Y-53789289D01*
X134370255Y-53789283D01*
X134134128Y-53608096D01*
X133876374Y-53459282D01*
X133876364Y-53459278D01*
X133601396Y-53345382D01*
X133313901Y-53268348D01*
X133018825Y-53229501D01*
X133018822Y-53229500D01*
X133018816Y-53229500D01*
X132721184Y-53229500D01*
X132721178Y-53229500D01*
X132721174Y-53229501D01*
X132426098Y-53268348D01*
X132138603Y-53345382D01*
X131863635Y-53459278D01*
X131863625Y-53459282D01*
X131605871Y-53608096D01*
X131369744Y-53789283D01*
X131369738Y-53789288D01*
X131195847Y-53963181D01*
X131134524Y-53996666D01*
X131108166Y-53999500D01*
X129751903Y-53999500D01*
X129518631Y-54036446D01*
X129294003Y-54109433D01*
X129083563Y-54216659D01*
X128892496Y-54355476D01*
X128892491Y-54355480D01*
X128284792Y-54963181D01*
X128223469Y-54996666D01*
X128197111Y-54999500D01*
X122063018Y-54999500D01*
X121995979Y-54979815D01*
X121950224Y-54927011D01*
X121940280Y-54857853D01*
X121969305Y-54794297D01*
X121975337Y-54787819D01*
X122126311Y-54636844D01*
X122126316Y-54636839D01*
X122263613Y-54457910D01*
X122376381Y-54262591D01*
X122395407Y-54216659D01*
X122462683Y-54054238D01*
X122462686Y-54054230D01*
X122462689Y-54054223D01*
X122477839Y-53997679D01*
X122509930Y-53942095D01*
X124915208Y-51536819D01*
X124976531Y-51503334D01*
X125002889Y-51500500D01*
X125988097Y-51500500D01*
X126221368Y-51463553D01*
X126445992Y-51390568D01*
X126656434Y-51283343D01*
X126847510Y-51144517D01*
X127514518Y-50477510D01*
X127653343Y-50286433D01*
X127760568Y-50075992D01*
X127833553Y-49851368D01*
X127837696Y-49825208D01*
X127870500Y-49618097D01*
X127870500Y-45381902D01*
X127833553Y-45148631D01*
X127760566Y-44924003D01*
X127686179Y-44778011D01*
X127653343Y-44713566D01*
X127514517Y-44522490D01*
X127454022Y-44461995D01*
X128069500Y-44461995D01*
X128069500Y-44698004D01*
X128069501Y-44698020D01*
X128100306Y-44932010D01*
X128161394Y-45159993D01*
X128251714Y-45378045D01*
X128251719Y-45378056D01*
X128297904Y-45458049D01*
X128369727Y-45582450D01*
X128369729Y-45582453D01*
X128369730Y-45582454D01*
X128513406Y-45769697D01*
X128513412Y-45769704D01*
X128680295Y-45936587D01*
X128680302Y-45936593D01*
X128713043Y-45961716D01*
X128867550Y-46080273D01*
X128998918Y-46156118D01*
X129071943Y-46198280D01*
X129071948Y-46198282D01*
X129071951Y-46198284D01*
X129290007Y-46288606D01*
X129517986Y-46349693D01*
X129751989Y-46380500D01*
X129751996Y-46380500D01*
X129988004Y-46380500D01*
X129988011Y-46380500D01*
X130222014Y-46349693D01*
X130449993Y-46288606D01*
X130668049Y-46198284D01*
X130683381Y-46189432D01*
X130843283Y-46097113D01*
X130905283Y-46080500D01*
X133334717Y-46080500D01*
X133396717Y-46097113D01*
X133571943Y-46198280D01*
X133571948Y-46198282D01*
X133571951Y-46198284D01*
X133790007Y-46288606D01*
X134017986Y-46349693D01*
X134251989Y-46380500D01*
X134251996Y-46380500D01*
X134488004Y-46380500D01*
X134488011Y-46380500D01*
X134722014Y-46349693D01*
X134949993Y-46288606D01*
X135168049Y-46198284D01*
X135372450Y-46080273D01*
X135559699Y-45936592D01*
X135726592Y-45769699D01*
X135870273Y-45582450D01*
X135988284Y-45378049D01*
X136078606Y-45159993D01*
X136139693Y-44932014D01*
X136170500Y-44698011D01*
X136170500Y-44461989D01*
X136139693Y-44227986D01*
X136078606Y-44000007D01*
X135988284Y-43781951D01*
X135988282Y-43781948D01*
X135988280Y-43781943D01*
X135915879Y-43656542D01*
X135870273Y-43577550D01*
X135787978Y-43470301D01*
X135726593Y-43390302D01*
X135726587Y-43390295D01*
X135559704Y-43223412D01*
X135559697Y-43223406D01*
X135372454Y-43079730D01*
X135372453Y-43079729D01*
X135372450Y-43079727D01*
X135265281Y-43017853D01*
X135168056Y-42961719D01*
X135168045Y-42961714D01*
X134949993Y-42871394D01*
X134722010Y-42810306D01*
X134488020Y-42779501D01*
X134488017Y-42779500D01*
X134488011Y-42779500D01*
X134251989Y-42779500D01*
X134251983Y-42779500D01*
X134251979Y-42779501D01*
X134017989Y-42810306D01*
X133790006Y-42871394D01*
X133571954Y-42961714D01*
X133571943Y-42961719D01*
X133396717Y-43062887D01*
X133334717Y-43079500D01*
X130905283Y-43079500D01*
X130843283Y-43062887D01*
X130668056Y-42961719D01*
X130668045Y-42961714D01*
X130449993Y-42871394D01*
X130222010Y-42810306D01*
X129988020Y-42779501D01*
X129988017Y-42779500D01*
X129988011Y-42779500D01*
X129751989Y-42779500D01*
X129751983Y-42779500D01*
X129751979Y-42779501D01*
X129517989Y-42810306D01*
X129290006Y-42871394D01*
X129071954Y-42961714D01*
X129071943Y-42961719D01*
X128867545Y-43079730D01*
X128680302Y-43223406D01*
X128680295Y-43223412D01*
X128513412Y-43390295D01*
X128513406Y-43390302D01*
X128369730Y-43577545D01*
X128251719Y-43781943D01*
X128251714Y-43781954D01*
X128161394Y-44000006D01*
X128100306Y-44227989D01*
X128069501Y-44461979D01*
X128069500Y-44461995D01*
X127454022Y-44461995D01*
X126507510Y-43515483D01*
X126316434Y-43376657D01*
X126105996Y-43269433D01*
X125881368Y-43196446D01*
X125648097Y-43159500D01*
X125648092Y-43159500D01*
X125563657Y-43159500D01*
X125496618Y-43139815D01*
X125450863Y-43087011D01*
X125440919Y-43017853D01*
X125456270Y-42973500D01*
X125488280Y-42918056D01*
X125488280Y-42918055D01*
X125488284Y-42918049D01*
X125578606Y-42699993D01*
X125639693Y-42472014D01*
X125670500Y-42238011D01*
X125670500Y-42001989D01*
X125639693Y-41767986D01*
X125578606Y-41540007D01*
X125488284Y-41321951D01*
X125488282Y-41321948D01*
X125488280Y-41321943D01*
X125416885Y-41198285D01*
X125370273Y-41117550D01*
X125231419Y-40936592D01*
X125226593Y-40930302D01*
X125226587Y-40930295D01*
X125059704Y-40763412D01*
X125059697Y-40763406D01*
X124872454Y-40619730D01*
X124872453Y-40619729D01*
X124872450Y-40619727D01*
X124790957Y-40572677D01*
X124668056Y-40501719D01*
X124668045Y-40501714D01*
X124449993Y-40411394D01*
X124222010Y-40350306D01*
X123988020Y-40319501D01*
X123988017Y-40319500D01*
X123988011Y-40319500D01*
X123751989Y-40319500D01*
X123751983Y-40319500D01*
X123751979Y-40319501D01*
X123517989Y-40350306D01*
X123290006Y-40411394D01*
X123071954Y-40501714D01*
X123071943Y-40501719D01*
X122867545Y-40619730D01*
X122680302Y-40763406D01*
X122680295Y-40763412D01*
X122582181Y-40861527D01*
X122520858Y-40895012D01*
X122451166Y-40890028D01*
X122395233Y-40848156D01*
X122370816Y-40782692D01*
X122370500Y-40773846D01*
X122370500Y-35846154D01*
X122390185Y-35779115D01*
X122442989Y-35733360D01*
X122512147Y-35723416D01*
X122575703Y-35752441D01*
X122582181Y-35758473D01*
X122680295Y-35856587D01*
X122680301Y-35856592D01*
X122867550Y-36000273D01*
X122998918Y-36076118D01*
X123071943Y-36118280D01*
X123071948Y-36118282D01*
X123071951Y-36118284D01*
X123290007Y-36208606D01*
X123517986Y-36269693D01*
X123751989Y-36300500D01*
X123751996Y-36300500D01*
X123988004Y-36300500D01*
X123988011Y-36300500D01*
X124222014Y-36269693D01*
X124449993Y-36208606D01*
X124668049Y-36118284D01*
X124806610Y-36038286D01*
X124843283Y-36017113D01*
X124905283Y-36000500D01*
X128973282Y-36000500D01*
X129035281Y-36017112D01*
X129071951Y-36038284D01*
X129290007Y-36128606D01*
X129517986Y-36189693D01*
X129751989Y-36220500D01*
X129751996Y-36220500D01*
X129988004Y-36220500D01*
X129988011Y-36220500D01*
X130222014Y-36189693D01*
X130449993Y-36128606D01*
X130668049Y-36038284D01*
X130872450Y-35920273D01*
X131059699Y-35776592D01*
X131226592Y-35609699D01*
X131370273Y-35422450D01*
X131488284Y-35218049D01*
X131578606Y-34999993D01*
X131639693Y-34772014D01*
X131670500Y-34538011D01*
X131670500Y-34301989D01*
X131639693Y-34067986D01*
X131578606Y-33840007D01*
X131488284Y-33621951D01*
X131488282Y-33621948D01*
X131488280Y-33621943D01*
X131415879Y-33496542D01*
X131370273Y-33417550D01*
X131292805Y-33316592D01*
X131226593Y-33230302D01*
X131226587Y-33230295D01*
X131059704Y-33063412D01*
X131059697Y-33063406D01*
X130872454Y-32919730D01*
X130872453Y-32919729D01*
X130872450Y-32919727D01*
X130765281Y-32857853D01*
X130668056Y-32801719D01*
X130668045Y-32801714D01*
X130449993Y-32711394D01*
X130222010Y-32650306D01*
X129988020Y-32619501D01*
X129988017Y-32619500D01*
X129988011Y-32619500D01*
X129751989Y-32619500D01*
X129751983Y-32619500D01*
X129751979Y-32619501D01*
X129517989Y-32650306D01*
X129290006Y-32711394D01*
X129071954Y-32801714D01*
X129071943Y-32801719D01*
X128867557Y-32919722D01*
X128867541Y-32919733D01*
X128796981Y-32973876D01*
X128731812Y-32999070D01*
X128721495Y-32999500D01*
X127791889Y-32999500D01*
X127724850Y-32979815D01*
X127679095Y-32927011D01*
X127669151Y-32857853D01*
X127698176Y-32794297D01*
X127704208Y-32787819D01*
X127952034Y-32539993D01*
X128379013Y-32113013D01*
X128440334Y-32079530D01*
X128510025Y-32084514D01*
X128528691Y-32093308D01*
X128571951Y-32118284D01*
X128790007Y-32208606D01*
X129017986Y-32269693D01*
X129251989Y-32300500D01*
X129251996Y-32300500D01*
X129488004Y-32300500D01*
X129488011Y-32300500D01*
X129722014Y-32269693D01*
X129949993Y-32208606D01*
X130168049Y-32118284D01*
X130372450Y-32000273D01*
X130559699Y-31856592D01*
X130726592Y-31689699D01*
X130870273Y-31502450D01*
X130988284Y-31298049D01*
X131078606Y-31079993D01*
X131139693Y-30852014D01*
X131170500Y-30618011D01*
X131170500Y-30381989D01*
X131139693Y-30147986D01*
X131078606Y-29920007D01*
X130988284Y-29701951D01*
X130988282Y-29701948D01*
X130988280Y-29701943D01*
X130893638Y-29538020D01*
X130870273Y-29497550D01*
X130726592Y-29310301D01*
X130726587Y-29310295D01*
X130559704Y-29143412D01*
X130559697Y-29143406D01*
X130372454Y-28999730D01*
X130372453Y-28999729D01*
X130372450Y-28999727D01*
X130290957Y-28952677D01*
X130168056Y-28881719D01*
X130168045Y-28881714D01*
X129949993Y-28791394D01*
X129722010Y-28730306D01*
X129488020Y-28699501D01*
X129488017Y-28699500D01*
X129488011Y-28699500D01*
X129251989Y-28699500D01*
X129251983Y-28699500D01*
X129251979Y-28699501D01*
X129017989Y-28730306D01*
X128790006Y-28791394D01*
X128571954Y-28881714D01*
X128571943Y-28881719D01*
X128396717Y-28982887D01*
X128334717Y-28999500D01*
X127751903Y-28999500D01*
X127518631Y-29036446D01*
X127294003Y-29109433D01*
X127083563Y-29216659D01*
X126892496Y-29355476D01*
X126892491Y-29355480D01*
X125824792Y-30423181D01*
X125763469Y-30456666D01*
X125737111Y-30459500D01*
X124905283Y-30459500D01*
X124843283Y-30442887D01*
X124668056Y-30341719D01*
X124668045Y-30341714D01*
X124449993Y-30251394D01*
X124222010Y-30190306D01*
X123988020Y-30159501D01*
X123988017Y-30159500D01*
X123988011Y-30159500D01*
X123751989Y-30159500D01*
X123751983Y-30159500D01*
X123751979Y-30159501D01*
X123517989Y-30190306D01*
X123290006Y-30251394D01*
X123071954Y-30341714D01*
X123071943Y-30341719D01*
X122867545Y-30459730D01*
X122680302Y-30603406D01*
X122680295Y-30603412D01*
X122513412Y-30770295D01*
X122513406Y-30770302D01*
X122369730Y-30957545D01*
X122251719Y-31161943D01*
X122251714Y-31161954D01*
X122161394Y-31380006D01*
X122155833Y-31400762D01*
X122119468Y-31460422D01*
X122056621Y-31490951D01*
X121987245Y-31482656D01*
X121948377Y-31456349D01*
X118767512Y-28275485D01*
X118767511Y-28275484D01*
X118731747Y-28249500D01*
X118576434Y-28136657D01*
X118365996Y-28029433D01*
X118141368Y-27956446D01*
X117908097Y-27919500D01*
X117908092Y-27919500D01*
X117285283Y-27919500D01*
X117223283Y-27902887D01*
X117048056Y-27801719D01*
X117048045Y-27801714D01*
X116829993Y-27711394D01*
X116602014Y-27650307D01*
X116602013Y-27650306D01*
X116602010Y-27650306D01*
X116368020Y-27619501D01*
X116368017Y-27619500D01*
X116368011Y-27619500D01*
X116131989Y-27619500D01*
X116131983Y-27619500D01*
X116131979Y-27619501D01*
X115897989Y-27650306D01*
X115670006Y-27711394D01*
X115451954Y-27801714D01*
X115451943Y-27801719D01*
X115247545Y-27919730D01*
X115060302Y-28063406D01*
X115060295Y-28063412D01*
X114893412Y-28230295D01*
X114893406Y-28230302D01*
X114749730Y-28417545D01*
X114631719Y-28621943D01*
X114631714Y-28621954D01*
X114541394Y-28840006D01*
X114480306Y-29067989D01*
X114449501Y-29301979D01*
X114449500Y-29301995D01*
X114449500Y-29538004D01*
X114449501Y-29538020D01*
X114480306Y-29772010D01*
X114541394Y-29999993D01*
X114631714Y-30218045D01*
X114631719Y-30218056D01*
X114702677Y-30340957D01*
X114749727Y-30422450D01*
X114749729Y-30422453D01*
X114749730Y-30422454D01*
X114895879Y-30612920D01*
X114894720Y-30613808D01*
X114921537Y-30671662D01*
X114911983Y-30740876D01*
X114895385Y-30766701D01*
X114895879Y-30767080D01*
X114749730Y-30957545D01*
X114631719Y-31161943D01*
X114631714Y-31161954D01*
X114541394Y-31380006D01*
X114480306Y-31607989D01*
X114449501Y-31841979D01*
X114449500Y-31841995D01*
X114449500Y-32078004D01*
X114449501Y-32078020D01*
X114480306Y-32312010D01*
X114541394Y-32539993D01*
X114631714Y-32758045D01*
X114631719Y-32758056D01*
X114689338Y-32857853D01*
X114749727Y-32962450D01*
X114749729Y-32962453D01*
X114749730Y-32962454D01*
X114893406Y-33149697D01*
X114893412Y-33149704D01*
X115060295Y-33316587D01*
X115060301Y-33316592D01*
X115247550Y-33460273D01*
X115378918Y-33536118D01*
X115451943Y-33578280D01*
X115451948Y-33578282D01*
X115451951Y-33578284D01*
X115670007Y-33668606D01*
X115897986Y-33729693D01*
X116131989Y-33760500D01*
X116131996Y-33760500D01*
X116368004Y-33760500D01*
X116368011Y-33760500D01*
X116602014Y-33729693D01*
X116829993Y-33668606D01*
X117048049Y-33578284D01*
X117252450Y-33460273D01*
X117439699Y-33316592D01*
X117606592Y-33149699D01*
X117750273Y-32962450D01*
X117868284Y-32758049D01*
X117958606Y-32539993D01*
X118019693Y-32312014D01*
X118049728Y-32083869D01*
X118077994Y-32019974D01*
X118136319Y-31981503D01*
X118206183Y-31980672D01*
X118260348Y-32012375D01*
X119333181Y-33085208D01*
X119366666Y-33146531D01*
X119369500Y-33172889D01*
X119369500Y-45618097D01*
X119406446Y-45851368D01*
X119479433Y-46075996D01*
X119585672Y-46284500D01*
X119586657Y-46286434D01*
X119725483Y-46477510D01*
X121592490Y-48344517D01*
X121783566Y-48483343D01*
X121882992Y-48534003D01*
X121994003Y-48590566D01*
X121994005Y-48590566D01*
X121994008Y-48590568D01*
X122114412Y-48629689D01*
X122218631Y-48663553D01*
X122451903Y-48700500D01*
X122451908Y-48700500D01*
X122457363Y-48700500D01*
X122524402Y-48720185D01*
X122527979Y-48722572D01*
X122666126Y-48818280D01*
X122700374Y-48842007D01*
X122747347Y-48863343D01*
X122905314Y-48935095D01*
X122905315Y-48935095D01*
X122905317Y-48935096D01*
X122986992Y-48955676D01*
X123047188Y-48991143D01*
X123078654Y-49053526D01*
X123071398Y-49123018D01*
X123044373Y-49163598D01*
X120387905Y-51820066D01*
X120332320Y-51852159D01*
X120275774Y-51867311D01*
X120275772Y-51867312D01*
X120067417Y-51953614D01*
X120067401Y-51953622D01*
X119976500Y-52006105D01*
X119908600Y-52022578D01*
X119842573Y-51999726D01*
X119799382Y-51944804D01*
X119790500Y-51898718D01*
X119790500Y-49121902D01*
X119753553Y-48888631D01*
X119714909Y-48769697D01*
X119680568Y-48664008D01*
X119680566Y-48664005D01*
X119680566Y-48664003D01*
X119624002Y-48552991D01*
X119573343Y-48453567D01*
X119518476Y-48378049D01*
X119434518Y-48262490D01*
X118043068Y-46871041D01*
X118010975Y-46815454D01*
X117958606Y-46620007D01*
X117899582Y-46477510D01*
X117868288Y-46401959D01*
X117868280Y-46401943D01*
X117802844Y-46288606D01*
X117750273Y-46197550D01*
X117660458Y-46080500D01*
X117604121Y-46007080D01*
X117605286Y-46006185D01*
X117578469Y-45948381D01*
X117587998Y-45879165D01*
X117604619Y-45853302D01*
X117604121Y-45852920D01*
X117660457Y-45779501D01*
X117750273Y-45662450D01*
X117868284Y-45458049D01*
X117958606Y-45239993D01*
X118019693Y-45012014D01*
X118050500Y-44778011D01*
X118050500Y-44541989D01*
X118019693Y-44307986D01*
X117958606Y-44080007D01*
X117868284Y-43861951D01*
X117868282Y-43861948D01*
X117868280Y-43861943D01*
X117822091Y-43781943D01*
X117750273Y-43657550D01*
X117606592Y-43470301D01*
X117606587Y-43470295D01*
X117439704Y-43303412D01*
X117439697Y-43303406D01*
X117252454Y-43159730D01*
X117252453Y-43159729D01*
X117252450Y-43159727D01*
X117170957Y-43112677D01*
X117048056Y-43041719D01*
X117048045Y-43041714D01*
X116829993Y-42951394D01*
X116602010Y-42890306D01*
X116368020Y-42859501D01*
X116368017Y-42859500D01*
X116368011Y-42859500D01*
X116131989Y-42859500D01*
X116131983Y-42859500D01*
X116131979Y-42859501D01*
X115897989Y-42890306D01*
X115670006Y-42951394D01*
X115451954Y-43041714D01*
X115451943Y-43041719D01*
X115276717Y-43142887D01*
X115214717Y-43159500D01*
X113452890Y-43159500D01*
X113385851Y-43139815D01*
X113365209Y-43123181D01*
X112222510Y-41980483D01*
X111196819Y-40954792D01*
X111163334Y-40893469D01*
X111160500Y-40867111D01*
X111160500Y-39335504D01*
X111180185Y-39268465D01*
X111232989Y-39222710D01*
X111302147Y-39212766D01*
X111316578Y-39215725D01*
X111517986Y-39269693D01*
X111751989Y-39300500D01*
X111751996Y-39300500D01*
X111988004Y-39300500D01*
X111988011Y-39300500D01*
X112222014Y-39269693D01*
X112449993Y-39208606D01*
X112668049Y-39118284D01*
X112872450Y-39000273D01*
X113059699Y-38856592D01*
X113226592Y-38689699D01*
X113303850Y-38589013D01*
X113360277Y-38547811D01*
X113402226Y-38540500D01*
X114501908Y-38540500D01*
X114556343Y-38540500D01*
X114623382Y-38560185D01*
X114669137Y-38612989D01*
X114679081Y-38682147D01*
X114663730Y-38726500D01*
X114631719Y-38781943D01*
X114631714Y-38781954D01*
X114541394Y-39000006D01*
X114480306Y-39227989D01*
X114449501Y-39461979D01*
X114449500Y-39461995D01*
X114449500Y-39698004D01*
X114449501Y-39698020D01*
X114480306Y-39932010D01*
X114541394Y-40159993D01*
X114631714Y-40378045D01*
X114631719Y-40378056D01*
X114702677Y-40500957D01*
X114749727Y-40582450D01*
X114749729Y-40582453D01*
X114749730Y-40582454D01*
X114893406Y-40769697D01*
X114893412Y-40769704D01*
X115060295Y-40936587D01*
X115060302Y-40936593D01*
X115170306Y-41021001D01*
X115247550Y-41080273D01*
X115378918Y-41156118D01*
X115451943Y-41198280D01*
X115451948Y-41198282D01*
X115451951Y-41198284D01*
X115670007Y-41288606D01*
X115897986Y-41349693D01*
X116131989Y-41380500D01*
X116131996Y-41380500D01*
X116368004Y-41380500D01*
X116368011Y-41380500D01*
X116602014Y-41349693D01*
X116829993Y-41288606D01*
X117048049Y-41198284D01*
X117252450Y-41080273D01*
X117439699Y-40936592D01*
X117606592Y-40769699D01*
X117750273Y-40582450D01*
X117868284Y-40378049D01*
X117958606Y-40159993D01*
X118019693Y-39932014D01*
X118050500Y-39698011D01*
X118050500Y-39461989D01*
X118019693Y-39227986D01*
X117958606Y-39000007D01*
X117868284Y-38781951D01*
X117868282Y-38781948D01*
X117868280Y-38781943D01*
X117767113Y-38606717D01*
X117750500Y-38544717D01*
X117750500Y-38075281D01*
X117767112Y-38013282D01*
X117868284Y-37838049D01*
X117958606Y-37619993D01*
X118019693Y-37392014D01*
X118050500Y-37158011D01*
X118050500Y-36921989D01*
X118019693Y-36687986D01*
X117958606Y-36460007D01*
X117868284Y-36241951D01*
X117868282Y-36241948D01*
X117868280Y-36241943D01*
X117802844Y-36128606D01*
X117750273Y-36037550D01*
X117611419Y-35856592D01*
X117606593Y-35850302D01*
X117606587Y-35850295D01*
X117439704Y-35683412D01*
X117439697Y-35683406D01*
X117252454Y-35539730D01*
X117252453Y-35539729D01*
X117252450Y-35539727D01*
X117170957Y-35492677D01*
X117048056Y-35421719D01*
X117048045Y-35421714D01*
X116829993Y-35331394D01*
X116602010Y-35270306D01*
X116368020Y-35239501D01*
X116368017Y-35239500D01*
X116368011Y-35239500D01*
X116131989Y-35239500D01*
X116131983Y-35239500D01*
X116131979Y-35239501D01*
X115897989Y-35270306D01*
X115670003Y-35331395D01*
X115501479Y-35401199D01*
X115432010Y-35408668D01*
X115369531Y-35377392D01*
X115366346Y-35374319D01*
X113656819Y-33664792D01*
X113623334Y-33603469D01*
X113620500Y-33577111D01*
X113620500Y-31131902D01*
X113583553Y-30898631D01*
X113568405Y-30852010D01*
X113510568Y-30674008D01*
X113504503Y-30662105D01*
X113403343Y-30463566D01*
X113264517Y-30272490D01*
X111597510Y-28605483D01*
X111406434Y-28466657D01*
X111195996Y-28359433D01*
X110971368Y-28286446D01*
X110738097Y-28249500D01*
X110738092Y-28249500D01*
X109292889Y-28249500D01*
X109225850Y-28229815D01*
X109205208Y-28213181D01*
X108656819Y-27664792D01*
X108623334Y-27603469D01*
X108620500Y-27577111D01*
X108620500Y-26846001D01*
X108637114Y-26784000D01*
X108653338Y-26755899D01*
X108653348Y-26755879D01*
X108672128Y-26710538D01*
X108741158Y-26543887D01*
X108800548Y-26322238D01*
X108830500Y-26094734D01*
X108830500Y-25865266D01*
X108800548Y-25637762D01*
X108741158Y-25416113D01*
X108653344Y-25204112D01*
X108538611Y-25005388D01*
X108538608Y-25005385D01*
X108538607Y-25005382D01*
X108398918Y-24823338D01*
X108398911Y-24823330D01*
X108236670Y-24661089D01*
X108236661Y-24661081D01*
X108054617Y-24521392D01*
X107855890Y-24406657D01*
X107855876Y-24406650D01*
X107643887Y-24318842D01*
X107422238Y-24259452D01*
X107384215Y-24254446D01*
X107194741Y-24229500D01*
X107194734Y-24229500D01*
X106965266Y-24229500D01*
X106965258Y-24229500D01*
X106748715Y-24258009D01*
X106737762Y-24259452D01*
X106696097Y-24270616D01*
X106516112Y-24318842D01*
X106304123Y-24406650D01*
X106304109Y-24406657D01*
X106105382Y-24521392D01*
X105923338Y-24661081D01*
X105897681Y-24686738D01*
X105836358Y-24720223D01*
X105766666Y-24715239D01*
X105722319Y-24686738D01*
X105696670Y-24661089D01*
X105696661Y-24661081D01*
X105514617Y-24521392D01*
X105315890Y-24406657D01*
X105315876Y-24406650D01*
X105103887Y-24318842D01*
X104882238Y-24259452D01*
X104844215Y-24254446D01*
X104654741Y-24229500D01*
X104654734Y-24229500D01*
X104425266Y-24229500D01*
X104425258Y-24229500D01*
X104223040Y-24256124D01*
X104197762Y-24259452D01*
X104197759Y-24259452D01*
X104197747Y-24259455D01*
X104156092Y-24270616D01*
X104086242Y-24268952D01*
X104028380Y-24229789D01*
X104000877Y-24165560D01*
X104000000Y-24150841D01*
X104000000Y-18624500D01*
X104019685Y-18557461D01*
X104072489Y-18511706D01*
X104124000Y-18500500D01*
X137375500Y-18500500D01*
X137442539Y-18520185D01*
G37*
%TD.AperFunction*%
%TD*%
%TA.AperFunction,Conductor*%
%TO.N,GNDPWR*%
G36*
X102943039Y-18520185D02*
G01*
X102988794Y-18572989D01*
X103000000Y-18624500D01*
X103000000Y-25113132D01*
X102983388Y-25175131D01*
X102966655Y-25204113D01*
X102966650Y-25204123D01*
X102878842Y-25416112D01*
X102878842Y-25416113D01*
X102819738Y-25636697D01*
X102819453Y-25637759D01*
X102819451Y-25637770D01*
X102789500Y-25865258D01*
X102789500Y-26094741D01*
X102814446Y-26284215D01*
X102819452Y-26322238D01*
X102850036Y-26436379D01*
X102878842Y-26543887D01*
X102966651Y-26755879D01*
X102966661Y-26755899D01*
X102983386Y-26784866D01*
X103000000Y-26846867D01*
X103000000Y-31695514D01*
X102990561Y-31742967D01*
X102918845Y-31916103D01*
X102918842Y-31916113D01*
X102859453Y-32137759D01*
X102859451Y-32137770D01*
X102829500Y-32365258D01*
X102829500Y-32594741D01*
X102854446Y-32784215D01*
X102859452Y-32822238D01*
X102918842Y-33043887D01*
X102989315Y-33214023D01*
X102990561Y-33217031D01*
X103000000Y-33264484D01*
X103000000Y-45955500D01*
X102980315Y-46022539D01*
X102927511Y-46068294D01*
X102876000Y-46079500D01*
X98252889Y-46079500D01*
X98185850Y-46059815D01*
X98165208Y-46043181D01*
X92265481Y-40143454D01*
X92245775Y-40117773D01*
X92127347Y-39912647D01*
X91971488Y-39709529D01*
X91790470Y-39528511D01*
X91587352Y-39372652D01*
X91365646Y-39244651D01*
X91365631Y-39244644D01*
X91129116Y-39146677D01*
X91014349Y-39115925D01*
X90881829Y-39080417D01*
X90825423Y-39072991D01*
X90628013Y-39047000D01*
X90628006Y-39047000D01*
X90371994Y-39047000D01*
X90371986Y-39047000D01*
X90146373Y-39076704D01*
X90118171Y-39080417D01*
X90051911Y-39098171D01*
X89870883Y-39146677D01*
X89634368Y-39244644D01*
X89634353Y-39244651D01*
X89412643Y-39372655D01*
X89344499Y-39424944D01*
X89279330Y-39450138D01*
X89210885Y-39436099D01*
X89193531Y-39424947D01*
X89073803Y-39333076D01*
X89073799Y-39333074D01*
X89073797Y-39333072D01*
X88846700Y-39201958D01*
X88846690Y-39201953D01*
X88604428Y-39101605D01*
X88604421Y-39101603D01*
X88604419Y-39101602D01*
X88351116Y-39033730D01*
X88293339Y-39026123D01*
X88091127Y-38999500D01*
X88091120Y-38999500D01*
X87828880Y-38999500D01*
X87828872Y-38999500D01*
X87597772Y-39029926D01*
X87568884Y-39033730D01*
X87394645Y-39080417D01*
X87315581Y-39101602D01*
X87315571Y-39101605D01*
X87073309Y-39201953D01*
X87073299Y-39201958D01*
X86846196Y-39333075D01*
X86638148Y-39492718D01*
X86452718Y-39678148D01*
X86293075Y-39886196D01*
X86161958Y-40113299D01*
X86161953Y-40113309D01*
X86061605Y-40355571D01*
X86061602Y-40355581D01*
X85993730Y-40608885D01*
X85959500Y-40868872D01*
X85959500Y-41375500D01*
X85939815Y-41442539D01*
X85887011Y-41488294D01*
X85835500Y-41499500D01*
X80879997Y-41499500D01*
X80812958Y-41479815D01*
X80792316Y-41463181D01*
X80536819Y-41207684D01*
X80503334Y-41146361D01*
X80500500Y-41120003D01*
X80500500Y-36545332D01*
X80520185Y-36478293D01*
X80527554Y-36468018D01*
X80542523Y-36449248D01*
X80691945Y-36211445D01*
X80813801Y-35958408D01*
X80906560Y-35693318D01*
X80969055Y-35419509D01*
X80976602Y-35352532D01*
X81000499Y-35140431D01*
X81000500Y-35140427D01*
X81000500Y-34859572D01*
X81000499Y-34859568D01*
X80969057Y-34580505D01*
X80969054Y-34580487D01*
X80906560Y-34306682D01*
X80906556Y-34306670D01*
X80855615Y-34161090D01*
X80813801Y-34041592D01*
X80691945Y-33788555D01*
X80542523Y-33550752D01*
X80367416Y-33331175D01*
X80168825Y-33132584D01*
X79949248Y-32957477D01*
X79711445Y-32808055D01*
X79711442Y-32808053D01*
X79458411Y-32686200D01*
X79193329Y-32593443D01*
X79193317Y-32593439D01*
X78919512Y-32530945D01*
X78919502Y-32530944D01*
X78895643Y-32528255D01*
X78831230Y-32501186D01*
X78821850Y-32492716D01*
X76943966Y-30614832D01*
X76910481Y-30553509D01*
X76915465Y-30483817D01*
X76957337Y-30427884D01*
X77022801Y-30403467D01*
X77031647Y-30403151D01*
X83868880Y-30403151D01*
X93120004Y-30403151D01*
X93187043Y-30422836D01*
X93207685Y-30439470D01*
X93963181Y-31194966D01*
X93996666Y-31256289D01*
X93999500Y-31282647D01*
X93999500Y-32120004D01*
X93979815Y-32187043D01*
X93963181Y-32207685D01*
X93707685Y-32463181D01*
X93646362Y-32496666D01*
X93620004Y-32499500D01*
X93609568Y-32499500D01*
X93330505Y-32530942D01*
X93330487Y-32530945D01*
X93056682Y-32593439D01*
X93056670Y-32593443D01*
X92791588Y-32686200D01*
X92538557Y-32808053D01*
X92300753Y-32957476D01*
X92081175Y-33132583D01*
X91882583Y-33331175D01*
X91707477Y-33550752D01*
X91558053Y-33788557D01*
X91436200Y-34041588D01*
X91343443Y-34306670D01*
X91343439Y-34306682D01*
X91280945Y-34580487D01*
X91280942Y-34580505D01*
X91249500Y-34859568D01*
X91249500Y-35140431D01*
X91280942Y-35419494D01*
X91280945Y-35419512D01*
X91343439Y-35693317D01*
X91343443Y-35693329D01*
X91436200Y-35958411D01*
X91558053Y-36211442D01*
X91558055Y-36211445D01*
X91707477Y-36449248D01*
X91882584Y-36668825D01*
X92081175Y-36867416D01*
X92300752Y-37042523D01*
X92538555Y-37191945D01*
X92791592Y-37313801D01*
X92990680Y-37383465D01*
X93056670Y-37406556D01*
X93056682Y-37406560D01*
X93330491Y-37469055D01*
X93330497Y-37469055D01*
X93330505Y-37469057D01*
X93516547Y-37490018D01*
X93609569Y-37500499D01*
X93609572Y-37500500D01*
X93609575Y-37500500D01*
X93890428Y-37500500D01*
X93890429Y-37500499D01*
X94033055Y-37484429D01*
X94169494Y-37469057D01*
X94169499Y-37469056D01*
X94169509Y-37469055D01*
X94443318Y-37406560D01*
X94708408Y-37313801D01*
X94961445Y-37191945D01*
X95199248Y-37042523D01*
X95418825Y-36867416D01*
X95617416Y-36668825D01*
X95792523Y-36449248D01*
X95941945Y-36211445D01*
X96063801Y-35958408D01*
X96124133Y-35785987D01*
X96157710Y-35690033D01*
X96158770Y-35690404D01*
X96187571Y-35641561D01*
X97507283Y-34321851D01*
X97630635Y-34161095D01*
X97666924Y-34113803D01*
X97798043Y-33886697D01*
X97898398Y-33644419D01*
X97923496Y-33550752D01*
X97966271Y-33391116D01*
X97989585Y-33214022D01*
X98000500Y-33131120D01*
X98000500Y-30271531D01*
X97975689Y-30083076D01*
X97966271Y-30011535D01*
X97898398Y-29758232D01*
X97798043Y-29515954D01*
X97772027Y-29470893D01*
X97666924Y-29288847D01*
X97597611Y-29198519D01*
X97507283Y-29080800D01*
X97507280Y-29080797D01*
X97507277Y-29080793D01*
X95610428Y-27183945D01*
X95596187Y-27166888D01*
X95513819Y-27047997D01*
X95354654Y-26888832D01*
X95354650Y-26888829D01*
X95354645Y-26888825D01*
X95169632Y-26760648D01*
X95169626Y-26760644D01*
X95115731Y-26736164D01*
X95105013Y-26730652D01*
X94886700Y-26604609D01*
X94886690Y-26604605D01*
X94644419Y-26504253D01*
X94391112Y-26436379D01*
X94261118Y-26419266D01*
X94131127Y-26402151D01*
X94131120Y-26402151D01*
X84131120Y-26402151D01*
X69282647Y-26402151D01*
X69215608Y-26382466D01*
X69194966Y-26365832D01*
X65198930Y-22369796D01*
X65166836Y-22314207D01*
X65154618Y-22268606D01*
X65040719Y-21993629D01*
X64891903Y-21735871D01*
X64710715Y-21499743D01*
X64710710Y-21499737D01*
X64500262Y-21289289D01*
X64500255Y-21289283D01*
X64264128Y-21108096D01*
X64006374Y-20959282D01*
X64006364Y-20959278D01*
X63731396Y-20845382D01*
X63443901Y-20768348D01*
X63148825Y-20729501D01*
X63148822Y-20729500D01*
X63148816Y-20729500D01*
X62851184Y-20729500D01*
X62851178Y-20729500D01*
X62851174Y-20729501D01*
X62556098Y-20768348D01*
X62268603Y-20845382D01*
X61993635Y-20959278D01*
X61993625Y-20959282D01*
X61735871Y-21108096D01*
X61499744Y-21289283D01*
X61499737Y-21289289D01*
X61289289Y-21499737D01*
X61289283Y-21499744D01*
X61108096Y-21735871D01*
X60959282Y-21993625D01*
X60959278Y-21993635D01*
X60845382Y-22268603D01*
X60768348Y-22556098D01*
X60729501Y-22851174D01*
X60729500Y-22851190D01*
X60729500Y-23148809D01*
X60729501Y-23148825D01*
X60768348Y-23443901D01*
X60845382Y-23731396D01*
X60959278Y-24006364D01*
X60959282Y-24006374D01*
X61108096Y-24264128D01*
X61289283Y-24500255D01*
X61289289Y-24500262D01*
X61499737Y-24710710D01*
X61499744Y-24710716D01*
X61735871Y-24891903D01*
X61993625Y-25040717D01*
X61993626Y-25040717D01*
X61993629Y-25040719D01*
X62268606Y-25154618D01*
X62314208Y-25166836D01*
X62369796Y-25198930D01*
X66708685Y-29537819D01*
X66742170Y-29599142D01*
X66737186Y-29668834D01*
X66695314Y-29724767D01*
X66629850Y-29749184D01*
X66621004Y-29749500D01*
X64940656Y-29749500D01*
X64873617Y-29729815D01*
X64852975Y-29713181D01*
X64835673Y-29695879D01*
X64774334Y-29646963D01*
X64594143Y-29503265D01*
X64332565Y-29338905D01*
X64332562Y-29338903D01*
X64054236Y-29204868D01*
X64054222Y-29204862D01*
X63762647Y-29102835D01*
X63762635Y-29102831D01*
X63461455Y-29034089D01*
X63461437Y-29034086D01*
X63154471Y-28999500D01*
X63154465Y-28999500D01*
X62845535Y-28999500D01*
X62845528Y-28999500D01*
X62538562Y-29034086D01*
X62538544Y-29034089D01*
X62237364Y-29102831D01*
X62237352Y-29102835D01*
X61945777Y-29204862D01*
X61945763Y-29204868D01*
X61667437Y-29338903D01*
X61405858Y-29503264D01*
X61164326Y-29695879D01*
X60945879Y-29914326D01*
X60753264Y-30155858D01*
X60588903Y-30417437D01*
X60462555Y-30679802D01*
X60415732Y-30731661D01*
X60350835Y-30750000D01*
X47128496Y-30750000D01*
X47061457Y-30730315D01*
X47015702Y-30677511D01*
X47005758Y-30608353D01*
X47034783Y-30544797D01*
X47040815Y-30538319D01*
X51507276Y-26071858D01*
X51507283Y-26071851D01*
X51597611Y-25954131D01*
X51666924Y-25863803D01*
X51798043Y-25636697D01*
X51898398Y-25394419D01*
X51931602Y-25270500D01*
X51966271Y-25141116D01*
X51984139Y-25005388D01*
X52000500Y-24881120D01*
X52000500Y-24109257D01*
X52017114Y-24047255D01*
X52027017Y-24030103D01*
X52040719Y-24006371D01*
X52154618Y-23731394D01*
X52231651Y-23443903D01*
X52270500Y-23148816D01*
X52270500Y-22851184D01*
X52231651Y-22556097D01*
X52154618Y-22268606D01*
X52040719Y-21993629D01*
X51891903Y-21735871D01*
X51710715Y-21499743D01*
X51710710Y-21499737D01*
X51500262Y-21289289D01*
X51500255Y-21289283D01*
X51264128Y-21108096D01*
X51006374Y-20959282D01*
X51006364Y-20959278D01*
X50731396Y-20845382D01*
X50443901Y-20768348D01*
X50148825Y-20729501D01*
X50148822Y-20729500D01*
X50148816Y-20729500D01*
X49851184Y-20729500D01*
X49851178Y-20729500D01*
X49851174Y-20729501D01*
X49556098Y-20768348D01*
X49268603Y-20845382D01*
X48993635Y-20959278D01*
X48993625Y-20959282D01*
X48735871Y-21108096D01*
X48499744Y-21289283D01*
X48499737Y-21289289D01*
X48289289Y-21499737D01*
X48289283Y-21499744D01*
X48108096Y-21735871D01*
X47959282Y-21993625D01*
X47959278Y-21993635D01*
X47845382Y-22268603D01*
X47768348Y-22556098D01*
X47729501Y-22851174D01*
X47729500Y-22851190D01*
X47729500Y-23148809D01*
X47729501Y-23148825D01*
X47768348Y-23443901D01*
X47845382Y-23731396D01*
X47914456Y-23898154D01*
X47921925Y-23967624D01*
X47890650Y-24030103D01*
X47887576Y-24033288D01*
X42957685Y-28963181D01*
X42896362Y-28996666D01*
X42870004Y-28999500D01*
X42845528Y-28999500D01*
X42538562Y-29034086D01*
X42538544Y-29034089D01*
X42237364Y-29102831D01*
X42237352Y-29102835D01*
X41945777Y-29204862D01*
X41945763Y-29204868D01*
X41667437Y-29338903D01*
X41405858Y-29503264D01*
X41164326Y-29695879D01*
X40945879Y-29914326D01*
X40753264Y-30155858D01*
X40588903Y-30417437D01*
X40462555Y-30679802D01*
X40415732Y-30731661D01*
X40350835Y-30750000D01*
X35124500Y-30750000D01*
X35057461Y-30730315D01*
X35011706Y-30677511D01*
X35000500Y-30626000D01*
X35000500Y-18624500D01*
X35020185Y-18557461D01*
X35072989Y-18511706D01*
X35124500Y-18500500D01*
X102876000Y-18500500D01*
X102943039Y-18520185D01*
G37*
%TD.AperFunction*%
%TD*%
M02*
