%TF.GenerationSoftware,KiCad,Pcbnew,9.0.4*%
%TF.CreationDate,2025-11-25T15:00:27-03:00*%
%TF.ProjectId,Conversor Boost-MCC. Andr__ Nicollas e Vinicius,436f6e76-6572-4736-9f72-20426f6f7374,rev?*%
%TF.SameCoordinates,Original*%
%TF.FileFunction,Drillmap*%
%TF.FilePolarity,Positive*%
%FSLAX45Y45*%
G04 Gerber Fmt 4.5, Leading zero omitted, Abs format (unit mm)*
G04 Created by KiCad (PCBNEW 9.0.4) date 2025-11-25 15:00:27*
%MOMM*%
%LPD*%
G01*
G04 APERTURE LIST*
%ADD10C,0.050000*%
%ADD11C,0.200000*%
%ADD12C,0.100000*%
%ADD13C,0.110000*%
%ADD14C,0.140000*%
G04 APERTURE END LIST*
D10*
X3450000Y-1800000D02*
X13800000Y-1800000D01*
X13800000Y-5900000D01*
X3450000Y-5900000D01*
X3450000Y-1800000D01*
D11*
D12*
X8360000Y-2300265D02*
X8440000Y-2380265D01*
X8440000Y-2300265D02*
X8360000Y-2380265D01*
X8360000Y-2800265D02*
X8440000Y-2880265D01*
X8440000Y-2800265D02*
X8360000Y-2880265D01*
X9360000Y-2300265D02*
X9440000Y-2380265D01*
X9440000Y-2300265D02*
X9360000Y-2380265D01*
X9360000Y-2800265D02*
X9440000Y-2880265D01*
X9440000Y-2800265D02*
X9360000Y-2880265D01*
X10414000Y-2558000D02*
X10494000Y-2638000D01*
X10494000Y-2558000D02*
X10414000Y-2638000D01*
X10418000Y-3208000D02*
X10498000Y-3288000D01*
X10498000Y-3208000D02*
X10418000Y-3288000D01*
X10647000Y-3702000D02*
X10727000Y-3782000D01*
X10727000Y-3702000D02*
X10647000Y-3782000D01*
X10647000Y-4718000D02*
X10727000Y-4798000D01*
X10727000Y-4718000D02*
X10647000Y-4798000D01*
X10668000Y-2558000D02*
X10748000Y-2638000D01*
X10748000Y-2558000D02*
X10668000Y-2638000D01*
X10672000Y-3208000D02*
X10752000Y-3288000D01*
X10752000Y-3208000D02*
X10672000Y-3288000D01*
X10922000Y-2558000D02*
X11002000Y-2638000D01*
X11002000Y-2558000D02*
X10922000Y-2638000D01*
X10926000Y-3208000D02*
X11006000Y-3288000D01*
X11006000Y-3208000D02*
X10926000Y-3288000D01*
X11147000Y-3710000D02*
X11227000Y-3790000D01*
X11227000Y-3710000D02*
X11147000Y-3790000D01*
X11147000Y-4726000D02*
X11227000Y-4806000D01*
X11227000Y-4726000D02*
X11147000Y-4806000D01*
X11585000Y-2902000D02*
X11665000Y-2982000D01*
X11665000Y-2902000D02*
X11585000Y-2982000D01*
X11585000Y-3156000D02*
X11665000Y-3236000D01*
X11665000Y-3156000D02*
X11585000Y-3236000D01*
X11585000Y-3410000D02*
X11665000Y-3490000D01*
X11665000Y-3410000D02*
X11585000Y-3490000D01*
X11585000Y-3664000D02*
X11665000Y-3744000D01*
X11665000Y-3664000D02*
X11585000Y-3744000D01*
X11585000Y-3918000D02*
X11665000Y-3998000D01*
X11665000Y-3918000D02*
X11585000Y-3998000D01*
X11585000Y-4172000D02*
X11665000Y-4252000D01*
X11665000Y-4172000D02*
X11585000Y-4252000D01*
X11585000Y-4426000D02*
X11665000Y-4506000D01*
X11665000Y-4426000D02*
X11585000Y-4506000D01*
X11585000Y-4680000D02*
X11665000Y-4760000D01*
X11665000Y-4680000D02*
X11585000Y-4760000D01*
X11789000Y-5310000D02*
X11869000Y-5390000D01*
X11869000Y-5310000D02*
X11789000Y-5390000D01*
X12043000Y-5310000D02*
X12123000Y-5390000D01*
X12123000Y-5310000D02*
X12043000Y-5390000D01*
X12297000Y-5310000D02*
X12377000Y-5390000D01*
X12377000Y-5310000D02*
X12297000Y-5390000D01*
X12347000Y-2902000D02*
X12427000Y-2982000D01*
X12427000Y-2902000D02*
X12347000Y-2982000D01*
X12347000Y-3156000D02*
X12427000Y-3236000D01*
X12427000Y-3156000D02*
X12347000Y-3236000D01*
X12347000Y-3410000D02*
X12427000Y-3490000D01*
X12427000Y-3410000D02*
X12347000Y-3490000D01*
X12347000Y-3664000D02*
X12427000Y-3744000D01*
X12427000Y-3664000D02*
X12347000Y-3744000D01*
X12347000Y-3918000D02*
X12427000Y-3998000D01*
X12427000Y-3918000D02*
X12347000Y-3998000D01*
X12347000Y-4172000D02*
X12427000Y-4252000D01*
X12427000Y-4172000D02*
X12347000Y-4252000D01*
X12347000Y-4426000D02*
X12427000Y-4506000D01*
X12427000Y-4426000D02*
X12347000Y-4506000D01*
X12347000Y-4680000D02*
X12427000Y-4760000D01*
X12427000Y-4680000D02*
X12347000Y-4760000D01*
X12897000Y-3010000D02*
X12977000Y-3090000D01*
X12977000Y-3010000D02*
X12897000Y-3090000D01*
X12947000Y-3402000D02*
X13027000Y-3482000D01*
X13027000Y-3402000D02*
X12947000Y-3482000D01*
X12947000Y-4418000D02*
X13027000Y-4498000D01*
X13027000Y-4418000D02*
X12947000Y-4498000D01*
X13397000Y-3010000D02*
X13477000Y-3090000D01*
X13477000Y-3010000D02*
X13397000Y-3090000D01*
X13397000Y-3402000D02*
X13477000Y-3482000D01*
X13477000Y-3402000D02*
X13397000Y-3482000D01*
X13397000Y-4418000D02*
X13477000Y-4498000D01*
X13477000Y-4418000D02*
X13397000Y-4498000D01*
D13*
X8597000Y-4100000D02*
G75*
G02*
X8487000Y-4100000I-55000J0D01*
G01*
X8487000Y-4100000D02*
G75*
G02*
X8597000Y-4100000I55000J0D01*
G01*
X8851000Y-4100000D02*
G75*
G02*
X8741000Y-4100000I-55000J0D01*
G01*
X8741000Y-4100000D02*
G75*
G02*
X8851000Y-4100000I55000J0D01*
G01*
X9105000Y-4100000D02*
G75*
G02*
X8995000Y-4100000I-55000J0D01*
G01*
X8995000Y-4100000D02*
G75*
G02*
X9105000Y-4100000I55000J0D01*
G01*
D14*
X5000000Y-2230000D02*
X5000000Y-2370000D01*
X4930000Y-2300000D02*
X5070000Y-2300000D01*
X5500000Y-2230000D02*
X5500000Y-2370000D01*
X5430000Y-2300000D02*
X5570000Y-2300000D01*
X6300000Y-2230000D02*
X6300000Y-2370000D01*
X6230000Y-2300000D02*
X6370000Y-2300000D01*
X6800000Y-2230000D02*
X6800000Y-2370000D01*
X6730000Y-2300000D02*
X6870000Y-2300000D01*
X13287000Y-4980000D02*
X13287000Y-5120000D01*
X13217000Y-5050000D02*
X13357000Y-5050000D01*
X13287000Y-5480000D02*
X13287000Y-5620000D01*
X13217000Y-5550000D02*
X13357000Y-5550000D01*
D11*
X4370711Y-3245711D02*
X4370711Y-3104289D01*
X4229289Y-3104289D01*
X4229289Y-3245711D01*
X4370711Y-3245711D01*
X6370711Y-3245711D02*
X6370711Y-3104289D01*
X6229289Y-3104289D01*
X6229289Y-3245711D01*
X6370711Y-3245711D01*
X7920711Y-3570711D02*
X7920711Y-3429289D01*
X7779289Y-3429289D01*
X7779289Y-3570711D01*
X7920711Y-3570711D01*
X9445711Y-3570711D02*
X9445711Y-3429289D01*
X9304289Y-3429289D01*
X9304289Y-3570711D01*
X9445711Y-3570711D01*
X3708277Y-6213984D02*
X3708277Y-6013984D01*
X3708277Y-6013984D02*
X3755896Y-6013984D01*
X3755896Y-6013984D02*
X3784467Y-6023508D01*
X3784467Y-6023508D02*
X3803515Y-6042555D01*
X3803515Y-6042555D02*
X3813039Y-6061603D01*
X3813039Y-6061603D02*
X3822562Y-6099698D01*
X3822562Y-6099698D02*
X3822562Y-6128269D01*
X3822562Y-6128269D02*
X3813039Y-6166365D01*
X3813039Y-6166365D02*
X3803515Y-6185412D01*
X3803515Y-6185412D02*
X3784467Y-6204460D01*
X3784467Y-6204460D02*
X3755896Y-6213984D01*
X3755896Y-6213984D02*
X3708277Y-6213984D01*
X3908277Y-6213984D02*
X3908277Y-6080650D01*
X3908277Y-6118746D02*
X3917801Y-6099698D01*
X3917801Y-6099698D02*
X3927324Y-6090174D01*
X3927324Y-6090174D02*
X3946372Y-6080650D01*
X3946372Y-6080650D02*
X3965420Y-6080650D01*
X4032086Y-6213984D02*
X4032086Y-6080650D01*
X4032086Y-6013984D02*
X4022562Y-6023508D01*
X4022562Y-6023508D02*
X4032086Y-6033031D01*
X4032086Y-6033031D02*
X4041610Y-6023508D01*
X4041610Y-6023508D02*
X4032086Y-6013984D01*
X4032086Y-6013984D02*
X4032086Y-6033031D01*
X4155896Y-6213984D02*
X4136848Y-6204460D01*
X4136848Y-6204460D02*
X4127324Y-6185412D01*
X4127324Y-6185412D02*
X4127324Y-6013984D01*
X4260658Y-6213984D02*
X4241610Y-6204460D01*
X4241610Y-6204460D02*
X4232086Y-6185412D01*
X4232086Y-6185412D02*
X4232086Y-6013984D01*
X4489229Y-6213984D02*
X4489229Y-6013984D01*
X4489229Y-6013984D02*
X4555896Y-6156841D01*
X4555896Y-6156841D02*
X4622563Y-6013984D01*
X4622563Y-6013984D02*
X4622563Y-6213984D01*
X4803515Y-6213984D02*
X4803515Y-6109222D01*
X4803515Y-6109222D02*
X4793991Y-6090174D01*
X4793991Y-6090174D02*
X4774944Y-6080650D01*
X4774944Y-6080650D02*
X4736848Y-6080650D01*
X4736848Y-6080650D02*
X4717801Y-6090174D01*
X4803515Y-6204460D02*
X4784467Y-6213984D01*
X4784467Y-6213984D02*
X4736848Y-6213984D01*
X4736848Y-6213984D02*
X4717801Y-6204460D01*
X4717801Y-6204460D02*
X4708277Y-6185412D01*
X4708277Y-6185412D02*
X4708277Y-6166365D01*
X4708277Y-6166365D02*
X4717801Y-6147317D01*
X4717801Y-6147317D02*
X4736848Y-6137793D01*
X4736848Y-6137793D02*
X4784467Y-6137793D01*
X4784467Y-6137793D02*
X4803515Y-6128269D01*
X4898753Y-6080650D02*
X4898753Y-6280650D01*
X4898753Y-6090174D02*
X4917801Y-6080650D01*
X4917801Y-6080650D02*
X4955896Y-6080650D01*
X4955896Y-6080650D02*
X4974944Y-6090174D01*
X4974944Y-6090174D02*
X4984467Y-6099698D01*
X4984467Y-6099698D02*
X4993991Y-6118746D01*
X4993991Y-6118746D02*
X4993991Y-6175888D01*
X4993991Y-6175888D02*
X4984467Y-6194936D01*
X4984467Y-6194936D02*
X4974944Y-6204460D01*
X4974944Y-6204460D02*
X4955896Y-6213984D01*
X4955896Y-6213984D02*
X4917801Y-6213984D01*
X4917801Y-6213984D02*
X4898753Y-6204460D01*
X5079705Y-6194936D02*
X5089229Y-6204460D01*
X5089229Y-6204460D02*
X5079705Y-6213984D01*
X5079705Y-6213984D02*
X5070182Y-6204460D01*
X5070182Y-6204460D02*
X5079705Y-6194936D01*
X5079705Y-6194936D02*
X5079705Y-6213984D01*
X5079705Y-6090174D02*
X5089229Y-6099698D01*
X5089229Y-6099698D02*
X5079705Y-6109222D01*
X5079705Y-6109222D02*
X5070182Y-6099698D01*
X5070182Y-6099698D02*
X5079705Y-6090174D01*
X5079705Y-6090174D02*
X5079705Y-6109222D01*
D12*
X3367500Y-6502500D02*
X3447500Y-6582500D01*
X3447500Y-6502500D02*
X3367500Y-6582500D01*
D11*
X3746372Y-6433984D02*
X3765420Y-6433984D01*
X3765420Y-6433984D02*
X3784467Y-6443508D01*
X3784467Y-6443508D02*
X3793991Y-6453031D01*
X3793991Y-6453031D02*
X3803515Y-6472079D01*
X3803515Y-6472079D02*
X3813039Y-6510174D01*
X3813039Y-6510174D02*
X3813039Y-6557793D01*
X3813039Y-6557793D02*
X3803515Y-6595888D01*
X3803515Y-6595888D02*
X3793991Y-6614936D01*
X3793991Y-6614936D02*
X3784467Y-6624460D01*
X3784467Y-6624460D02*
X3765420Y-6633984D01*
X3765420Y-6633984D02*
X3746372Y-6633984D01*
X3746372Y-6633984D02*
X3727324Y-6624460D01*
X3727324Y-6624460D02*
X3717801Y-6614936D01*
X3717801Y-6614936D02*
X3708277Y-6595888D01*
X3708277Y-6595888D02*
X3698753Y-6557793D01*
X3698753Y-6557793D02*
X3698753Y-6510174D01*
X3698753Y-6510174D02*
X3708277Y-6472079D01*
X3708277Y-6472079D02*
X3717801Y-6453031D01*
X3717801Y-6453031D02*
X3727324Y-6443508D01*
X3727324Y-6443508D02*
X3746372Y-6433984D01*
X3898753Y-6614936D02*
X3908277Y-6624460D01*
X3908277Y-6624460D02*
X3898753Y-6633984D01*
X3898753Y-6633984D02*
X3889229Y-6624460D01*
X3889229Y-6624460D02*
X3898753Y-6614936D01*
X3898753Y-6614936D02*
X3898753Y-6633984D01*
X4022562Y-6519698D02*
X4003515Y-6510174D01*
X4003515Y-6510174D02*
X3993991Y-6500650D01*
X3993991Y-6500650D02*
X3984467Y-6481603D01*
X3984467Y-6481603D02*
X3984467Y-6472079D01*
X3984467Y-6472079D02*
X3993991Y-6453031D01*
X3993991Y-6453031D02*
X4003515Y-6443508D01*
X4003515Y-6443508D02*
X4022562Y-6433984D01*
X4022562Y-6433984D02*
X4060658Y-6433984D01*
X4060658Y-6433984D02*
X4079705Y-6443508D01*
X4079705Y-6443508D02*
X4089229Y-6453031D01*
X4089229Y-6453031D02*
X4098753Y-6472079D01*
X4098753Y-6472079D02*
X4098753Y-6481603D01*
X4098753Y-6481603D02*
X4089229Y-6500650D01*
X4089229Y-6500650D02*
X4079705Y-6510174D01*
X4079705Y-6510174D02*
X4060658Y-6519698D01*
X4060658Y-6519698D02*
X4022562Y-6519698D01*
X4022562Y-6519698D02*
X4003515Y-6529222D01*
X4003515Y-6529222D02*
X3993991Y-6538746D01*
X3993991Y-6538746D02*
X3984467Y-6557793D01*
X3984467Y-6557793D02*
X3984467Y-6595888D01*
X3984467Y-6595888D02*
X3993991Y-6614936D01*
X3993991Y-6614936D02*
X4003515Y-6624460D01*
X4003515Y-6624460D02*
X4022562Y-6633984D01*
X4022562Y-6633984D02*
X4060658Y-6633984D01*
X4060658Y-6633984D02*
X4079705Y-6624460D01*
X4079705Y-6624460D02*
X4089229Y-6614936D01*
X4089229Y-6614936D02*
X4098753Y-6595888D01*
X4098753Y-6595888D02*
X4098753Y-6557793D01*
X4098753Y-6557793D02*
X4089229Y-6538746D01*
X4089229Y-6538746D02*
X4079705Y-6529222D01*
X4079705Y-6529222D02*
X4060658Y-6519698D01*
X4222563Y-6433984D02*
X4241610Y-6433984D01*
X4241610Y-6433984D02*
X4260658Y-6443508D01*
X4260658Y-6443508D02*
X4270182Y-6453031D01*
X4270182Y-6453031D02*
X4279705Y-6472079D01*
X4279705Y-6472079D02*
X4289229Y-6510174D01*
X4289229Y-6510174D02*
X4289229Y-6557793D01*
X4289229Y-6557793D02*
X4279705Y-6595888D01*
X4279705Y-6595888D02*
X4270182Y-6614936D01*
X4270182Y-6614936D02*
X4260658Y-6624460D01*
X4260658Y-6624460D02*
X4241610Y-6633984D01*
X4241610Y-6633984D02*
X4222563Y-6633984D01*
X4222563Y-6633984D02*
X4203515Y-6624460D01*
X4203515Y-6624460D02*
X4193991Y-6614936D01*
X4193991Y-6614936D02*
X4184467Y-6595888D01*
X4184467Y-6595888D02*
X4174943Y-6557793D01*
X4174943Y-6557793D02*
X4174943Y-6510174D01*
X4174943Y-6510174D02*
X4184467Y-6472079D01*
X4184467Y-6472079D02*
X4193991Y-6453031D01*
X4193991Y-6453031D02*
X4203515Y-6443508D01*
X4203515Y-6443508D02*
X4222563Y-6433984D01*
X4413039Y-6433984D02*
X4432086Y-6433984D01*
X4432086Y-6433984D02*
X4451134Y-6443508D01*
X4451134Y-6443508D02*
X4460658Y-6453031D01*
X4460658Y-6453031D02*
X4470182Y-6472079D01*
X4470182Y-6472079D02*
X4479705Y-6510174D01*
X4479705Y-6510174D02*
X4479705Y-6557793D01*
X4479705Y-6557793D02*
X4470182Y-6595888D01*
X4470182Y-6595888D02*
X4460658Y-6614936D01*
X4460658Y-6614936D02*
X4451134Y-6624460D01*
X4451134Y-6624460D02*
X4432086Y-6633984D01*
X4432086Y-6633984D02*
X4413039Y-6633984D01*
X4413039Y-6633984D02*
X4393991Y-6624460D01*
X4393991Y-6624460D02*
X4384467Y-6614936D01*
X4384467Y-6614936D02*
X4374944Y-6595888D01*
X4374944Y-6595888D02*
X4365420Y-6557793D01*
X4365420Y-6557793D02*
X4365420Y-6510174D01*
X4365420Y-6510174D02*
X4374944Y-6472079D01*
X4374944Y-6472079D02*
X4384467Y-6453031D01*
X4384467Y-6453031D02*
X4393991Y-6443508D01*
X4393991Y-6443508D02*
X4413039Y-6433984D01*
X4565420Y-6633984D02*
X4565420Y-6500650D01*
X4565420Y-6519698D02*
X4574944Y-6510174D01*
X4574944Y-6510174D02*
X4593991Y-6500650D01*
X4593991Y-6500650D02*
X4622563Y-6500650D01*
X4622563Y-6500650D02*
X4641610Y-6510174D01*
X4641610Y-6510174D02*
X4651134Y-6529222D01*
X4651134Y-6529222D02*
X4651134Y-6633984D01*
X4651134Y-6529222D02*
X4660658Y-6510174D01*
X4660658Y-6510174D02*
X4679705Y-6500650D01*
X4679705Y-6500650D02*
X4708277Y-6500650D01*
X4708277Y-6500650D02*
X4727325Y-6510174D01*
X4727325Y-6510174D02*
X4736848Y-6529222D01*
X4736848Y-6529222D02*
X4736848Y-6633984D01*
X4832086Y-6633984D02*
X4832086Y-6500650D01*
X4832086Y-6519698D02*
X4841610Y-6510174D01*
X4841610Y-6510174D02*
X4860658Y-6500650D01*
X4860658Y-6500650D02*
X4889229Y-6500650D01*
X4889229Y-6500650D02*
X4908277Y-6510174D01*
X4908277Y-6510174D02*
X4917801Y-6529222D01*
X4917801Y-6529222D02*
X4917801Y-6633984D01*
X4917801Y-6529222D02*
X4927325Y-6510174D01*
X4927325Y-6510174D02*
X4946372Y-6500650D01*
X4946372Y-6500650D02*
X4974944Y-6500650D01*
X4974944Y-6500650D02*
X4993991Y-6510174D01*
X4993991Y-6510174D02*
X5003515Y-6529222D01*
X5003515Y-6529222D02*
X5003515Y-6633984D01*
X5393991Y-6424460D02*
X5222563Y-6681603D01*
X5651134Y-6433984D02*
X5670182Y-6433984D01*
X5670182Y-6433984D02*
X5689229Y-6443508D01*
X5689229Y-6443508D02*
X5698753Y-6453031D01*
X5698753Y-6453031D02*
X5708277Y-6472079D01*
X5708277Y-6472079D02*
X5717801Y-6510174D01*
X5717801Y-6510174D02*
X5717801Y-6557793D01*
X5717801Y-6557793D02*
X5708277Y-6595888D01*
X5708277Y-6595888D02*
X5698753Y-6614936D01*
X5698753Y-6614936D02*
X5689229Y-6624460D01*
X5689229Y-6624460D02*
X5670182Y-6633984D01*
X5670182Y-6633984D02*
X5651134Y-6633984D01*
X5651134Y-6633984D02*
X5632086Y-6624460D01*
X5632086Y-6624460D02*
X5622563Y-6614936D01*
X5622563Y-6614936D02*
X5613039Y-6595888D01*
X5613039Y-6595888D02*
X5603515Y-6557793D01*
X5603515Y-6557793D02*
X5603515Y-6510174D01*
X5603515Y-6510174D02*
X5613039Y-6472079D01*
X5613039Y-6472079D02*
X5622563Y-6453031D01*
X5622563Y-6453031D02*
X5632086Y-6443508D01*
X5632086Y-6443508D02*
X5651134Y-6433984D01*
X5803515Y-6614936D02*
X5813039Y-6624460D01*
X5813039Y-6624460D02*
X5803515Y-6633984D01*
X5803515Y-6633984D02*
X5793991Y-6624460D01*
X5793991Y-6624460D02*
X5803515Y-6614936D01*
X5803515Y-6614936D02*
X5803515Y-6633984D01*
X5936848Y-6433984D02*
X5955896Y-6433984D01*
X5955896Y-6433984D02*
X5974944Y-6443508D01*
X5974944Y-6443508D02*
X5984467Y-6453031D01*
X5984467Y-6453031D02*
X5993991Y-6472079D01*
X5993991Y-6472079D02*
X6003515Y-6510174D01*
X6003515Y-6510174D02*
X6003515Y-6557793D01*
X6003515Y-6557793D02*
X5993991Y-6595888D01*
X5993991Y-6595888D02*
X5984467Y-6614936D01*
X5984467Y-6614936D02*
X5974944Y-6624460D01*
X5974944Y-6624460D02*
X5955896Y-6633984D01*
X5955896Y-6633984D02*
X5936848Y-6633984D01*
X5936848Y-6633984D02*
X5917801Y-6624460D01*
X5917801Y-6624460D02*
X5908277Y-6614936D01*
X5908277Y-6614936D02*
X5898753Y-6595888D01*
X5898753Y-6595888D02*
X5889229Y-6557793D01*
X5889229Y-6557793D02*
X5889229Y-6510174D01*
X5889229Y-6510174D02*
X5898753Y-6472079D01*
X5898753Y-6472079D02*
X5908277Y-6453031D01*
X5908277Y-6453031D02*
X5917801Y-6443508D01*
X5917801Y-6443508D02*
X5936848Y-6433984D01*
X6070182Y-6433984D02*
X6193991Y-6433984D01*
X6193991Y-6433984D02*
X6127325Y-6510174D01*
X6127325Y-6510174D02*
X6155896Y-6510174D01*
X6155896Y-6510174D02*
X6174944Y-6519698D01*
X6174944Y-6519698D02*
X6184467Y-6529222D01*
X6184467Y-6529222D02*
X6193991Y-6548269D01*
X6193991Y-6548269D02*
X6193991Y-6595888D01*
X6193991Y-6595888D02*
X6184467Y-6614936D01*
X6184467Y-6614936D02*
X6174944Y-6624460D01*
X6174944Y-6624460D02*
X6155896Y-6633984D01*
X6155896Y-6633984D02*
X6098753Y-6633984D01*
X6098753Y-6633984D02*
X6079706Y-6624460D01*
X6079706Y-6624460D02*
X6070182Y-6614936D01*
X6384467Y-6633984D02*
X6270182Y-6633984D01*
X6327325Y-6633984D02*
X6327325Y-6433984D01*
X6327325Y-6433984D02*
X6308277Y-6462555D01*
X6308277Y-6462555D02*
X6289229Y-6481603D01*
X6289229Y-6481603D02*
X6270182Y-6491127D01*
X6565420Y-6433984D02*
X6470182Y-6433984D01*
X6470182Y-6433984D02*
X6460658Y-6529222D01*
X6460658Y-6529222D02*
X6470182Y-6519698D01*
X6470182Y-6519698D02*
X6489229Y-6510174D01*
X6489229Y-6510174D02*
X6536848Y-6510174D01*
X6536848Y-6510174D02*
X6555896Y-6519698D01*
X6555896Y-6519698D02*
X6565420Y-6529222D01*
X6565420Y-6529222D02*
X6574944Y-6548269D01*
X6574944Y-6548269D02*
X6574944Y-6595888D01*
X6574944Y-6595888D02*
X6565420Y-6614936D01*
X6565420Y-6614936D02*
X6555896Y-6624460D01*
X6555896Y-6624460D02*
X6536848Y-6633984D01*
X6536848Y-6633984D02*
X6489229Y-6633984D01*
X6489229Y-6633984D02*
X6470182Y-6624460D01*
X6470182Y-6624460D02*
X6460658Y-6614936D01*
X6651134Y-6433984D02*
X6651134Y-6472079D01*
X6727325Y-6433984D02*
X6727325Y-6472079D01*
X7022563Y-6710174D02*
X7013039Y-6700650D01*
X7013039Y-6700650D02*
X6993991Y-6672079D01*
X6993991Y-6672079D02*
X6984468Y-6653031D01*
X6984468Y-6653031D02*
X6974944Y-6624460D01*
X6974944Y-6624460D02*
X6965420Y-6576841D01*
X6965420Y-6576841D02*
X6965420Y-6538746D01*
X6965420Y-6538746D02*
X6974944Y-6491127D01*
X6974944Y-6491127D02*
X6984468Y-6462555D01*
X6984468Y-6462555D02*
X6993991Y-6443508D01*
X6993991Y-6443508D02*
X7013039Y-6414936D01*
X7013039Y-6414936D02*
X7022563Y-6405412D01*
X7079706Y-6433984D02*
X7203515Y-6433984D01*
X7203515Y-6433984D02*
X7136848Y-6510174D01*
X7136848Y-6510174D02*
X7165420Y-6510174D01*
X7165420Y-6510174D02*
X7184468Y-6519698D01*
X7184468Y-6519698D02*
X7193991Y-6529222D01*
X7193991Y-6529222D02*
X7203515Y-6548269D01*
X7203515Y-6548269D02*
X7203515Y-6595888D01*
X7203515Y-6595888D02*
X7193991Y-6614936D01*
X7193991Y-6614936D02*
X7184468Y-6624460D01*
X7184468Y-6624460D02*
X7165420Y-6633984D01*
X7165420Y-6633984D02*
X7108277Y-6633984D01*
X7108277Y-6633984D02*
X7089229Y-6624460D01*
X7089229Y-6624460D02*
X7079706Y-6614936D01*
X7298753Y-6633984D02*
X7336848Y-6633984D01*
X7336848Y-6633984D02*
X7355896Y-6624460D01*
X7355896Y-6624460D02*
X7365420Y-6614936D01*
X7365420Y-6614936D02*
X7384468Y-6586365D01*
X7384468Y-6586365D02*
X7393991Y-6548269D01*
X7393991Y-6548269D02*
X7393991Y-6472079D01*
X7393991Y-6472079D02*
X7384468Y-6453031D01*
X7384468Y-6453031D02*
X7374944Y-6443508D01*
X7374944Y-6443508D02*
X7355896Y-6433984D01*
X7355896Y-6433984D02*
X7317801Y-6433984D01*
X7317801Y-6433984D02*
X7298753Y-6443508D01*
X7298753Y-6443508D02*
X7289229Y-6453031D01*
X7289229Y-6453031D02*
X7279706Y-6472079D01*
X7279706Y-6472079D02*
X7279706Y-6519698D01*
X7279706Y-6519698D02*
X7289229Y-6538746D01*
X7289229Y-6538746D02*
X7298753Y-6548269D01*
X7298753Y-6548269D02*
X7317801Y-6557793D01*
X7317801Y-6557793D02*
X7355896Y-6557793D01*
X7355896Y-6557793D02*
X7374944Y-6548269D01*
X7374944Y-6548269D02*
X7384468Y-6538746D01*
X7384468Y-6538746D02*
X7393991Y-6519698D01*
X7632087Y-6633984D02*
X7632087Y-6433984D01*
X7717801Y-6633984D02*
X7717801Y-6529222D01*
X7717801Y-6529222D02*
X7708277Y-6510174D01*
X7708277Y-6510174D02*
X7689230Y-6500650D01*
X7689230Y-6500650D02*
X7660658Y-6500650D01*
X7660658Y-6500650D02*
X7641610Y-6510174D01*
X7641610Y-6510174D02*
X7632087Y-6519698D01*
X7841610Y-6633984D02*
X7822563Y-6624460D01*
X7822563Y-6624460D02*
X7813039Y-6614936D01*
X7813039Y-6614936D02*
X7803515Y-6595888D01*
X7803515Y-6595888D02*
X7803515Y-6538746D01*
X7803515Y-6538746D02*
X7813039Y-6519698D01*
X7813039Y-6519698D02*
X7822563Y-6510174D01*
X7822563Y-6510174D02*
X7841610Y-6500650D01*
X7841610Y-6500650D02*
X7870182Y-6500650D01*
X7870182Y-6500650D02*
X7889230Y-6510174D01*
X7889230Y-6510174D02*
X7898753Y-6519698D01*
X7898753Y-6519698D02*
X7908277Y-6538746D01*
X7908277Y-6538746D02*
X7908277Y-6595888D01*
X7908277Y-6595888D02*
X7898753Y-6614936D01*
X7898753Y-6614936D02*
X7889230Y-6624460D01*
X7889230Y-6624460D02*
X7870182Y-6633984D01*
X7870182Y-6633984D02*
X7841610Y-6633984D01*
X8022563Y-6633984D02*
X8003515Y-6624460D01*
X8003515Y-6624460D02*
X7993991Y-6605412D01*
X7993991Y-6605412D02*
X7993991Y-6433984D01*
X8174944Y-6624460D02*
X8155896Y-6633984D01*
X8155896Y-6633984D02*
X8117801Y-6633984D01*
X8117801Y-6633984D02*
X8098753Y-6624460D01*
X8098753Y-6624460D02*
X8089230Y-6605412D01*
X8089230Y-6605412D02*
X8089230Y-6529222D01*
X8089230Y-6529222D02*
X8098753Y-6510174D01*
X8098753Y-6510174D02*
X8117801Y-6500650D01*
X8117801Y-6500650D02*
X8155896Y-6500650D01*
X8155896Y-6500650D02*
X8174944Y-6510174D01*
X8174944Y-6510174D02*
X8184468Y-6529222D01*
X8184468Y-6529222D02*
X8184468Y-6548269D01*
X8184468Y-6548269D02*
X8089230Y-6567317D01*
X8260658Y-6624460D02*
X8279706Y-6633984D01*
X8279706Y-6633984D02*
X8317801Y-6633984D01*
X8317801Y-6633984D02*
X8336849Y-6624460D01*
X8336849Y-6624460D02*
X8346372Y-6605412D01*
X8346372Y-6605412D02*
X8346372Y-6595888D01*
X8346372Y-6595888D02*
X8336849Y-6576841D01*
X8336849Y-6576841D02*
X8317801Y-6567317D01*
X8317801Y-6567317D02*
X8289230Y-6567317D01*
X8289230Y-6567317D02*
X8270182Y-6557793D01*
X8270182Y-6557793D02*
X8260658Y-6538746D01*
X8260658Y-6538746D02*
X8260658Y-6529222D01*
X8260658Y-6529222D02*
X8270182Y-6510174D01*
X8270182Y-6510174D02*
X8289230Y-6500650D01*
X8289230Y-6500650D02*
X8317801Y-6500650D01*
X8317801Y-6500650D02*
X8336849Y-6510174D01*
X8413039Y-6710174D02*
X8422563Y-6700650D01*
X8422563Y-6700650D02*
X8441611Y-6672079D01*
X8441611Y-6672079D02*
X8451134Y-6653031D01*
X8451134Y-6653031D02*
X8460658Y-6624460D01*
X8460658Y-6624460D02*
X8470182Y-6576841D01*
X8470182Y-6576841D02*
X8470182Y-6538746D01*
X8470182Y-6538746D02*
X8460658Y-6491127D01*
X8460658Y-6491127D02*
X8451134Y-6462555D01*
X8451134Y-6462555D02*
X8441611Y-6443508D01*
X8441611Y-6443508D02*
X8422563Y-6414936D01*
X8422563Y-6414936D02*
X8413039Y-6405412D01*
D13*
X3447500Y-6806500D02*
G75*
G02*
X3337500Y-6806500I-55000J0D01*
G01*
X3337500Y-6806500D02*
G75*
G02*
X3447500Y-6806500I55000J0D01*
G01*
D11*
X3813039Y-6897984D02*
X3698753Y-6897984D01*
X3755896Y-6897984D02*
X3755896Y-6697984D01*
X3755896Y-6697984D02*
X3736848Y-6726555D01*
X3736848Y-6726555D02*
X3717801Y-6745603D01*
X3717801Y-6745603D02*
X3698753Y-6755127D01*
X3898753Y-6878936D02*
X3908277Y-6888460D01*
X3908277Y-6888460D02*
X3898753Y-6897984D01*
X3898753Y-6897984D02*
X3889229Y-6888460D01*
X3889229Y-6888460D02*
X3898753Y-6878936D01*
X3898753Y-6878936D02*
X3898753Y-6897984D01*
X4098753Y-6897984D02*
X3984467Y-6897984D01*
X4041610Y-6897984D02*
X4041610Y-6697984D01*
X4041610Y-6697984D02*
X4022562Y-6726555D01*
X4022562Y-6726555D02*
X4003515Y-6745603D01*
X4003515Y-6745603D02*
X3984467Y-6755127D01*
X4222563Y-6697984D02*
X4241610Y-6697984D01*
X4241610Y-6697984D02*
X4260658Y-6707508D01*
X4260658Y-6707508D02*
X4270182Y-6717031D01*
X4270182Y-6717031D02*
X4279705Y-6736079D01*
X4279705Y-6736079D02*
X4289229Y-6774174D01*
X4289229Y-6774174D02*
X4289229Y-6821793D01*
X4289229Y-6821793D02*
X4279705Y-6859888D01*
X4279705Y-6859888D02*
X4270182Y-6878936D01*
X4270182Y-6878936D02*
X4260658Y-6888460D01*
X4260658Y-6888460D02*
X4241610Y-6897984D01*
X4241610Y-6897984D02*
X4222563Y-6897984D01*
X4222563Y-6897984D02*
X4203515Y-6888460D01*
X4203515Y-6888460D02*
X4193991Y-6878936D01*
X4193991Y-6878936D02*
X4184467Y-6859888D01*
X4184467Y-6859888D02*
X4174943Y-6821793D01*
X4174943Y-6821793D02*
X4174943Y-6774174D01*
X4174943Y-6774174D02*
X4184467Y-6736079D01*
X4184467Y-6736079D02*
X4193991Y-6717031D01*
X4193991Y-6717031D02*
X4203515Y-6707508D01*
X4203515Y-6707508D02*
X4222563Y-6697984D01*
X4413039Y-6697984D02*
X4432086Y-6697984D01*
X4432086Y-6697984D02*
X4451134Y-6707508D01*
X4451134Y-6707508D02*
X4460658Y-6717031D01*
X4460658Y-6717031D02*
X4470182Y-6736079D01*
X4470182Y-6736079D02*
X4479705Y-6774174D01*
X4479705Y-6774174D02*
X4479705Y-6821793D01*
X4479705Y-6821793D02*
X4470182Y-6859888D01*
X4470182Y-6859888D02*
X4460658Y-6878936D01*
X4460658Y-6878936D02*
X4451134Y-6888460D01*
X4451134Y-6888460D02*
X4432086Y-6897984D01*
X4432086Y-6897984D02*
X4413039Y-6897984D01*
X4413039Y-6897984D02*
X4393991Y-6888460D01*
X4393991Y-6888460D02*
X4384467Y-6878936D01*
X4384467Y-6878936D02*
X4374944Y-6859888D01*
X4374944Y-6859888D02*
X4365420Y-6821793D01*
X4365420Y-6821793D02*
X4365420Y-6774174D01*
X4365420Y-6774174D02*
X4374944Y-6736079D01*
X4374944Y-6736079D02*
X4384467Y-6717031D01*
X4384467Y-6717031D02*
X4393991Y-6707508D01*
X4393991Y-6707508D02*
X4413039Y-6697984D01*
X4565420Y-6897984D02*
X4565420Y-6764650D01*
X4565420Y-6783698D02*
X4574944Y-6774174D01*
X4574944Y-6774174D02*
X4593991Y-6764650D01*
X4593991Y-6764650D02*
X4622563Y-6764650D01*
X4622563Y-6764650D02*
X4641610Y-6774174D01*
X4641610Y-6774174D02*
X4651134Y-6793222D01*
X4651134Y-6793222D02*
X4651134Y-6897984D01*
X4651134Y-6793222D02*
X4660658Y-6774174D01*
X4660658Y-6774174D02*
X4679705Y-6764650D01*
X4679705Y-6764650D02*
X4708277Y-6764650D01*
X4708277Y-6764650D02*
X4727325Y-6774174D01*
X4727325Y-6774174D02*
X4736848Y-6793222D01*
X4736848Y-6793222D02*
X4736848Y-6897984D01*
X4832086Y-6897984D02*
X4832086Y-6764650D01*
X4832086Y-6783698D02*
X4841610Y-6774174D01*
X4841610Y-6774174D02*
X4860658Y-6764650D01*
X4860658Y-6764650D02*
X4889229Y-6764650D01*
X4889229Y-6764650D02*
X4908277Y-6774174D01*
X4908277Y-6774174D02*
X4917801Y-6793222D01*
X4917801Y-6793222D02*
X4917801Y-6897984D01*
X4917801Y-6793222D02*
X4927325Y-6774174D01*
X4927325Y-6774174D02*
X4946372Y-6764650D01*
X4946372Y-6764650D02*
X4974944Y-6764650D01*
X4974944Y-6764650D02*
X4993991Y-6774174D01*
X4993991Y-6774174D02*
X5003515Y-6793222D01*
X5003515Y-6793222D02*
X5003515Y-6897984D01*
X5393991Y-6688460D02*
X5222563Y-6945603D01*
X5651134Y-6697984D02*
X5670182Y-6697984D01*
X5670182Y-6697984D02*
X5689229Y-6707508D01*
X5689229Y-6707508D02*
X5698753Y-6717031D01*
X5698753Y-6717031D02*
X5708277Y-6736079D01*
X5708277Y-6736079D02*
X5717801Y-6774174D01*
X5717801Y-6774174D02*
X5717801Y-6821793D01*
X5717801Y-6821793D02*
X5708277Y-6859888D01*
X5708277Y-6859888D02*
X5698753Y-6878936D01*
X5698753Y-6878936D02*
X5689229Y-6888460D01*
X5689229Y-6888460D02*
X5670182Y-6897984D01*
X5670182Y-6897984D02*
X5651134Y-6897984D01*
X5651134Y-6897984D02*
X5632086Y-6888460D01*
X5632086Y-6888460D02*
X5622563Y-6878936D01*
X5622563Y-6878936D02*
X5613039Y-6859888D01*
X5613039Y-6859888D02*
X5603515Y-6821793D01*
X5603515Y-6821793D02*
X5603515Y-6774174D01*
X5603515Y-6774174D02*
X5613039Y-6736079D01*
X5613039Y-6736079D02*
X5622563Y-6717031D01*
X5622563Y-6717031D02*
X5632086Y-6707508D01*
X5632086Y-6707508D02*
X5651134Y-6697984D01*
X5803515Y-6878936D02*
X5813039Y-6888460D01*
X5813039Y-6888460D02*
X5803515Y-6897984D01*
X5803515Y-6897984D02*
X5793991Y-6888460D01*
X5793991Y-6888460D02*
X5803515Y-6878936D01*
X5803515Y-6878936D02*
X5803515Y-6897984D01*
X5936848Y-6697984D02*
X5955896Y-6697984D01*
X5955896Y-6697984D02*
X5974944Y-6707508D01*
X5974944Y-6707508D02*
X5984467Y-6717031D01*
X5984467Y-6717031D02*
X5993991Y-6736079D01*
X5993991Y-6736079D02*
X6003515Y-6774174D01*
X6003515Y-6774174D02*
X6003515Y-6821793D01*
X6003515Y-6821793D02*
X5993991Y-6859888D01*
X5993991Y-6859888D02*
X5984467Y-6878936D01*
X5984467Y-6878936D02*
X5974944Y-6888460D01*
X5974944Y-6888460D02*
X5955896Y-6897984D01*
X5955896Y-6897984D02*
X5936848Y-6897984D01*
X5936848Y-6897984D02*
X5917801Y-6888460D01*
X5917801Y-6888460D02*
X5908277Y-6878936D01*
X5908277Y-6878936D02*
X5898753Y-6859888D01*
X5898753Y-6859888D02*
X5889229Y-6821793D01*
X5889229Y-6821793D02*
X5889229Y-6774174D01*
X5889229Y-6774174D02*
X5898753Y-6736079D01*
X5898753Y-6736079D02*
X5908277Y-6717031D01*
X5908277Y-6717031D02*
X5917801Y-6707508D01*
X5917801Y-6707508D02*
X5936848Y-6697984D01*
X6174944Y-6764650D02*
X6174944Y-6897984D01*
X6127325Y-6688460D02*
X6079706Y-6831317D01*
X6079706Y-6831317D02*
X6203515Y-6831317D01*
X6260658Y-6697984D02*
X6384467Y-6697984D01*
X6384467Y-6697984D02*
X6317801Y-6774174D01*
X6317801Y-6774174D02*
X6346372Y-6774174D01*
X6346372Y-6774174D02*
X6365420Y-6783698D01*
X6365420Y-6783698D02*
X6374944Y-6793222D01*
X6374944Y-6793222D02*
X6384467Y-6812269D01*
X6384467Y-6812269D02*
X6384467Y-6859888D01*
X6384467Y-6859888D02*
X6374944Y-6878936D01*
X6374944Y-6878936D02*
X6365420Y-6888460D01*
X6365420Y-6888460D02*
X6346372Y-6897984D01*
X6346372Y-6897984D02*
X6289229Y-6897984D01*
X6289229Y-6897984D02*
X6270182Y-6888460D01*
X6270182Y-6888460D02*
X6260658Y-6878936D01*
X6451134Y-6697984D02*
X6574944Y-6697984D01*
X6574944Y-6697984D02*
X6508277Y-6774174D01*
X6508277Y-6774174D02*
X6536848Y-6774174D01*
X6536848Y-6774174D02*
X6555896Y-6783698D01*
X6555896Y-6783698D02*
X6565420Y-6793222D01*
X6565420Y-6793222D02*
X6574944Y-6812269D01*
X6574944Y-6812269D02*
X6574944Y-6859888D01*
X6574944Y-6859888D02*
X6565420Y-6878936D01*
X6565420Y-6878936D02*
X6555896Y-6888460D01*
X6555896Y-6888460D02*
X6536848Y-6897984D01*
X6536848Y-6897984D02*
X6479706Y-6897984D01*
X6479706Y-6897984D02*
X6460658Y-6888460D01*
X6460658Y-6888460D02*
X6451134Y-6878936D01*
X6651134Y-6697984D02*
X6651134Y-6736079D01*
X6727325Y-6697984D02*
X6727325Y-6736079D01*
X7022563Y-6974174D02*
X7013039Y-6964650D01*
X7013039Y-6964650D02*
X6993991Y-6936079D01*
X6993991Y-6936079D02*
X6984468Y-6917031D01*
X6984468Y-6917031D02*
X6974944Y-6888460D01*
X6974944Y-6888460D02*
X6965420Y-6840841D01*
X6965420Y-6840841D02*
X6965420Y-6802746D01*
X6965420Y-6802746D02*
X6974944Y-6755127D01*
X6974944Y-6755127D02*
X6984468Y-6726555D01*
X6984468Y-6726555D02*
X6993991Y-6707508D01*
X6993991Y-6707508D02*
X7013039Y-6678936D01*
X7013039Y-6678936D02*
X7022563Y-6669412D01*
X7079706Y-6697984D02*
X7203515Y-6697984D01*
X7203515Y-6697984D02*
X7136848Y-6774174D01*
X7136848Y-6774174D02*
X7165420Y-6774174D01*
X7165420Y-6774174D02*
X7184468Y-6783698D01*
X7184468Y-6783698D02*
X7193991Y-6793222D01*
X7193991Y-6793222D02*
X7203515Y-6812269D01*
X7203515Y-6812269D02*
X7203515Y-6859888D01*
X7203515Y-6859888D02*
X7193991Y-6878936D01*
X7193991Y-6878936D02*
X7184468Y-6888460D01*
X7184468Y-6888460D02*
X7165420Y-6897984D01*
X7165420Y-6897984D02*
X7108277Y-6897984D01*
X7108277Y-6897984D02*
X7089229Y-6888460D01*
X7089229Y-6888460D02*
X7079706Y-6878936D01*
X7441610Y-6897984D02*
X7441610Y-6697984D01*
X7527325Y-6897984D02*
X7527325Y-6793222D01*
X7527325Y-6793222D02*
X7517801Y-6774174D01*
X7517801Y-6774174D02*
X7498753Y-6764650D01*
X7498753Y-6764650D02*
X7470182Y-6764650D01*
X7470182Y-6764650D02*
X7451134Y-6774174D01*
X7451134Y-6774174D02*
X7441610Y-6783698D01*
X7651134Y-6897984D02*
X7632087Y-6888460D01*
X7632087Y-6888460D02*
X7622563Y-6878936D01*
X7622563Y-6878936D02*
X7613039Y-6859888D01*
X7613039Y-6859888D02*
X7613039Y-6802746D01*
X7613039Y-6802746D02*
X7622563Y-6783698D01*
X7622563Y-6783698D02*
X7632087Y-6774174D01*
X7632087Y-6774174D02*
X7651134Y-6764650D01*
X7651134Y-6764650D02*
X7679706Y-6764650D01*
X7679706Y-6764650D02*
X7698753Y-6774174D01*
X7698753Y-6774174D02*
X7708277Y-6783698D01*
X7708277Y-6783698D02*
X7717801Y-6802746D01*
X7717801Y-6802746D02*
X7717801Y-6859888D01*
X7717801Y-6859888D02*
X7708277Y-6878936D01*
X7708277Y-6878936D02*
X7698753Y-6888460D01*
X7698753Y-6888460D02*
X7679706Y-6897984D01*
X7679706Y-6897984D02*
X7651134Y-6897984D01*
X7832087Y-6897984D02*
X7813039Y-6888460D01*
X7813039Y-6888460D02*
X7803515Y-6869412D01*
X7803515Y-6869412D02*
X7803515Y-6697984D01*
X7984468Y-6888460D02*
X7965420Y-6897984D01*
X7965420Y-6897984D02*
X7927325Y-6897984D01*
X7927325Y-6897984D02*
X7908277Y-6888460D01*
X7908277Y-6888460D02*
X7898753Y-6869412D01*
X7898753Y-6869412D02*
X7898753Y-6793222D01*
X7898753Y-6793222D02*
X7908277Y-6774174D01*
X7908277Y-6774174D02*
X7927325Y-6764650D01*
X7927325Y-6764650D02*
X7965420Y-6764650D01*
X7965420Y-6764650D02*
X7984468Y-6774174D01*
X7984468Y-6774174D02*
X7993991Y-6793222D01*
X7993991Y-6793222D02*
X7993991Y-6812269D01*
X7993991Y-6812269D02*
X7898753Y-6831317D01*
X8070182Y-6888460D02*
X8089230Y-6897984D01*
X8089230Y-6897984D02*
X8127325Y-6897984D01*
X8127325Y-6897984D02*
X8146372Y-6888460D01*
X8146372Y-6888460D02*
X8155896Y-6869412D01*
X8155896Y-6869412D02*
X8155896Y-6859888D01*
X8155896Y-6859888D02*
X8146372Y-6840841D01*
X8146372Y-6840841D02*
X8127325Y-6831317D01*
X8127325Y-6831317D02*
X8098753Y-6831317D01*
X8098753Y-6831317D02*
X8079706Y-6821793D01*
X8079706Y-6821793D02*
X8070182Y-6802746D01*
X8070182Y-6802746D02*
X8070182Y-6793222D01*
X8070182Y-6793222D02*
X8079706Y-6774174D01*
X8079706Y-6774174D02*
X8098753Y-6764650D01*
X8098753Y-6764650D02*
X8127325Y-6764650D01*
X8127325Y-6764650D02*
X8146372Y-6774174D01*
X8222563Y-6974174D02*
X8232087Y-6964650D01*
X8232087Y-6964650D02*
X8251134Y-6936079D01*
X8251134Y-6936079D02*
X8260658Y-6917031D01*
X8260658Y-6917031D02*
X8270182Y-6888460D01*
X8270182Y-6888460D02*
X8279706Y-6840841D01*
X8279706Y-6840841D02*
X8279706Y-6802746D01*
X8279706Y-6802746D02*
X8270182Y-6755127D01*
X8270182Y-6755127D02*
X8260658Y-6726555D01*
X8260658Y-6726555D02*
X8251134Y-6707508D01*
X8251134Y-6707508D02*
X8232087Y-6678936D01*
X8232087Y-6678936D02*
X8222563Y-6669412D01*
D14*
X3377500Y-7000500D02*
X3377500Y-7140500D01*
X3307500Y-7070500D02*
X3447500Y-7070500D01*
D11*
X3813039Y-7161984D02*
X3698753Y-7161984D01*
X3755896Y-7161984D02*
X3755896Y-6961984D01*
X3755896Y-6961984D02*
X3736848Y-6990555D01*
X3736848Y-6990555D02*
X3717801Y-7009603D01*
X3717801Y-7009603D02*
X3698753Y-7019127D01*
X3898753Y-7142936D02*
X3908277Y-7152460D01*
X3908277Y-7152460D02*
X3898753Y-7161984D01*
X3898753Y-7161984D02*
X3889229Y-7152460D01*
X3889229Y-7152460D02*
X3898753Y-7142936D01*
X3898753Y-7142936D02*
X3898753Y-7161984D01*
X4079705Y-7028650D02*
X4079705Y-7161984D01*
X4032086Y-6952460D02*
X3984467Y-7095317D01*
X3984467Y-7095317D02*
X4108277Y-7095317D01*
X4222563Y-6961984D02*
X4241610Y-6961984D01*
X4241610Y-6961984D02*
X4260658Y-6971508D01*
X4260658Y-6971508D02*
X4270182Y-6981031D01*
X4270182Y-6981031D02*
X4279705Y-7000079D01*
X4279705Y-7000079D02*
X4289229Y-7038174D01*
X4289229Y-7038174D02*
X4289229Y-7085793D01*
X4289229Y-7085793D02*
X4279705Y-7123888D01*
X4279705Y-7123888D02*
X4270182Y-7142936D01*
X4270182Y-7142936D02*
X4260658Y-7152460D01*
X4260658Y-7152460D02*
X4241610Y-7161984D01*
X4241610Y-7161984D02*
X4222563Y-7161984D01*
X4222563Y-7161984D02*
X4203515Y-7152460D01*
X4203515Y-7152460D02*
X4193991Y-7142936D01*
X4193991Y-7142936D02*
X4184467Y-7123888D01*
X4184467Y-7123888D02*
X4174943Y-7085793D01*
X4174943Y-7085793D02*
X4174943Y-7038174D01*
X4174943Y-7038174D02*
X4184467Y-7000079D01*
X4184467Y-7000079D02*
X4193991Y-6981031D01*
X4193991Y-6981031D02*
X4203515Y-6971508D01*
X4203515Y-6971508D02*
X4222563Y-6961984D01*
X4413039Y-6961984D02*
X4432086Y-6961984D01*
X4432086Y-6961984D02*
X4451134Y-6971508D01*
X4451134Y-6971508D02*
X4460658Y-6981031D01*
X4460658Y-6981031D02*
X4470182Y-7000079D01*
X4470182Y-7000079D02*
X4479705Y-7038174D01*
X4479705Y-7038174D02*
X4479705Y-7085793D01*
X4479705Y-7085793D02*
X4470182Y-7123888D01*
X4470182Y-7123888D02*
X4460658Y-7142936D01*
X4460658Y-7142936D02*
X4451134Y-7152460D01*
X4451134Y-7152460D02*
X4432086Y-7161984D01*
X4432086Y-7161984D02*
X4413039Y-7161984D01*
X4413039Y-7161984D02*
X4393991Y-7152460D01*
X4393991Y-7152460D02*
X4384467Y-7142936D01*
X4384467Y-7142936D02*
X4374944Y-7123888D01*
X4374944Y-7123888D02*
X4365420Y-7085793D01*
X4365420Y-7085793D02*
X4365420Y-7038174D01*
X4365420Y-7038174D02*
X4374944Y-7000079D01*
X4374944Y-7000079D02*
X4384467Y-6981031D01*
X4384467Y-6981031D02*
X4393991Y-6971508D01*
X4393991Y-6971508D02*
X4413039Y-6961984D01*
X4565420Y-7161984D02*
X4565420Y-7028650D01*
X4565420Y-7047698D02*
X4574944Y-7038174D01*
X4574944Y-7038174D02*
X4593991Y-7028650D01*
X4593991Y-7028650D02*
X4622563Y-7028650D01*
X4622563Y-7028650D02*
X4641610Y-7038174D01*
X4641610Y-7038174D02*
X4651134Y-7057222D01*
X4651134Y-7057222D02*
X4651134Y-7161984D01*
X4651134Y-7057222D02*
X4660658Y-7038174D01*
X4660658Y-7038174D02*
X4679705Y-7028650D01*
X4679705Y-7028650D02*
X4708277Y-7028650D01*
X4708277Y-7028650D02*
X4727325Y-7038174D01*
X4727325Y-7038174D02*
X4736848Y-7057222D01*
X4736848Y-7057222D02*
X4736848Y-7161984D01*
X4832086Y-7161984D02*
X4832086Y-7028650D01*
X4832086Y-7047698D02*
X4841610Y-7038174D01*
X4841610Y-7038174D02*
X4860658Y-7028650D01*
X4860658Y-7028650D02*
X4889229Y-7028650D01*
X4889229Y-7028650D02*
X4908277Y-7038174D01*
X4908277Y-7038174D02*
X4917801Y-7057222D01*
X4917801Y-7057222D02*
X4917801Y-7161984D01*
X4917801Y-7057222D02*
X4927325Y-7038174D01*
X4927325Y-7038174D02*
X4946372Y-7028650D01*
X4946372Y-7028650D02*
X4974944Y-7028650D01*
X4974944Y-7028650D02*
X4993991Y-7038174D01*
X4993991Y-7038174D02*
X5003515Y-7057222D01*
X5003515Y-7057222D02*
X5003515Y-7161984D01*
X5393991Y-6952460D02*
X5222563Y-7209603D01*
X5651134Y-6961984D02*
X5670182Y-6961984D01*
X5670182Y-6961984D02*
X5689229Y-6971508D01*
X5689229Y-6971508D02*
X5698753Y-6981031D01*
X5698753Y-6981031D02*
X5708277Y-7000079D01*
X5708277Y-7000079D02*
X5717801Y-7038174D01*
X5717801Y-7038174D02*
X5717801Y-7085793D01*
X5717801Y-7085793D02*
X5708277Y-7123888D01*
X5708277Y-7123888D02*
X5698753Y-7142936D01*
X5698753Y-7142936D02*
X5689229Y-7152460D01*
X5689229Y-7152460D02*
X5670182Y-7161984D01*
X5670182Y-7161984D02*
X5651134Y-7161984D01*
X5651134Y-7161984D02*
X5632086Y-7152460D01*
X5632086Y-7152460D02*
X5622563Y-7142936D01*
X5622563Y-7142936D02*
X5613039Y-7123888D01*
X5613039Y-7123888D02*
X5603515Y-7085793D01*
X5603515Y-7085793D02*
X5603515Y-7038174D01*
X5603515Y-7038174D02*
X5613039Y-7000079D01*
X5613039Y-7000079D02*
X5622563Y-6981031D01*
X5622563Y-6981031D02*
X5632086Y-6971508D01*
X5632086Y-6971508D02*
X5651134Y-6961984D01*
X5803515Y-7142936D02*
X5813039Y-7152460D01*
X5813039Y-7152460D02*
X5803515Y-7161984D01*
X5803515Y-7161984D02*
X5793991Y-7152460D01*
X5793991Y-7152460D02*
X5803515Y-7142936D01*
X5803515Y-7142936D02*
X5803515Y-7161984D01*
X5936848Y-6961984D02*
X5955896Y-6961984D01*
X5955896Y-6961984D02*
X5974944Y-6971508D01*
X5974944Y-6971508D02*
X5984467Y-6981031D01*
X5984467Y-6981031D02*
X5993991Y-7000079D01*
X5993991Y-7000079D02*
X6003515Y-7038174D01*
X6003515Y-7038174D02*
X6003515Y-7085793D01*
X6003515Y-7085793D02*
X5993991Y-7123888D01*
X5993991Y-7123888D02*
X5984467Y-7142936D01*
X5984467Y-7142936D02*
X5974944Y-7152460D01*
X5974944Y-7152460D02*
X5955896Y-7161984D01*
X5955896Y-7161984D02*
X5936848Y-7161984D01*
X5936848Y-7161984D02*
X5917801Y-7152460D01*
X5917801Y-7152460D02*
X5908277Y-7142936D01*
X5908277Y-7142936D02*
X5898753Y-7123888D01*
X5898753Y-7123888D02*
X5889229Y-7085793D01*
X5889229Y-7085793D02*
X5889229Y-7038174D01*
X5889229Y-7038174D02*
X5898753Y-7000079D01*
X5898753Y-7000079D02*
X5908277Y-6981031D01*
X5908277Y-6981031D02*
X5917801Y-6971508D01*
X5917801Y-6971508D02*
X5936848Y-6961984D01*
X6184467Y-6961984D02*
X6089229Y-6961984D01*
X6089229Y-6961984D02*
X6079706Y-7057222D01*
X6079706Y-7057222D02*
X6089229Y-7047698D01*
X6089229Y-7047698D02*
X6108277Y-7038174D01*
X6108277Y-7038174D02*
X6155896Y-7038174D01*
X6155896Y-7038174D02*
X6174944Y-7047698D01*
X6174944Y-7047698D02*
X6184467Y-7057222D01*
X6184467Y-7057222D02*
X6193991Y-7076269D01*
X6193991Y-7076269D02*
X6193991Y-7123888D01*
X6193991Y-7123888D02*
X6184467Y-7142936D01*
X6184467Y-7142936D02*
X6174944Y-7152460D01*
X6174944Y-7152460D02*
X6155896Y-7161984D01*
X6155896Y-7161984D02*
X6108277Y-7161984D01*
X6108277Y-7161984D02*
X6089229Y-7152460D01*
X6089229Y-7152460D02*
X6079706Y-7142936D01*
X6374944Y-6961984D02*
X6279706Y-6961984D01*
X6279706Y-6961984D02*
X6270182Y-7057222D01*
X6270182Y-7057222D02*
X6279706Y-7047698D01*
X6279706Y-7047698D02*
X6298753Y-7038174D01*
X6298753Y-7038174D02*
X6346372Y-7038174D01*
X6346372Y-7038174D02*
X6365420Y-7047698D01*
X6365420Y-7047698D02*
X6374944Y-7057222D01*
X6374944Y-7057222D02*
X6384467Y-7076269D01*
X6384467Y-7076269D02*
X6384467Y-7123888D01*
X6384467Y-7123888D02*
X6374944Y-7142936D01*
X6374944Y-7142936D02*
X6365420Y-7152460D01*
X6365420Y-7152460D02*
X6346372Y-7161984D01*
X6346372Y-7161984D02*
X6298753Y-7161984D01*
X6298753Y-7161984D02*
X6279706Y-7152460D01*
X6279706Y-7152460D02*
X6270182Y-7142936D01*
X6574944Y-7161984D02*
X6460658Y-7161984D01*
X6517801Y-7161984D02*
X6517801Y-6961984D01*
X6517801Y-6961984D02*
X6498753Y-6990555D01*
X6498753Y-6990555D02*
X6479706Y-7009603D01*
X6479706Y-7009603D02*
X6460658Y-7019127D01*
X6651134Y-6961984D02*
X6651134Y-7000079D01*
X6727325Y-6961984D02*
X6727325Y-7000079D01*
X7022563Y-7238174D02*
X7013039Y-7228650D01*
X7013039Y-7228650D02*
X6993991Y-7200079D01*
X6993991Y-7200079D02*
X6984468Y-7181031D01*
X6984468Y-7181031D02*
X6974944Y-7152460D01*
X6974944Y-7152460D02*
X6965420Y-7104841D01*
X6965420Y-7104841D02*
X6965420Y-7066746D01*
X6965420Y-7066746D02*
X6974944Y-7019127D01*
X6974944Y-7019127D02*
X6984468Y-6990555D01*
X6984468Y-6990555D02*
X6993991Y-6971508D01*
X6993991Y-6971508D02*
X7013039Y-6942936D01*
X7013039Y-6942936D02*
X7022563Y-6933412D01*
X7184468Y-6961984D02*
X7146372Y-6961984D01*
X7146372Y-6961984D02*
X7127325Y-6971508D01*
X7127325Y-6971508D02*
X7117801Y-6981031D01*
X7117801Y-6981031D02*
X7098753Y-7009603D01*
X7098753Y-7009603D02*
X7089229Y-7047698D01*
X7089229Y-7047698D02*
X7089229Y-7123888D01*
X7089229Y-7123888D02*
X7098753Y-7142936D01*
X7098753Y-7142936D02*
X7108277Y-7152460D01*
X7108277Y-7152460D02*
X7127325Y-7161984D01*
X7127325Y-7161984D02*
X7165420Y-7161984D01*
X7165420Y-7161984D02*
X7184468Y-7152460D01*
X7184468Y-7152460D02*
X7193991Y-7142936D01*
X7193991Y-7142936D02*
X7203515Y-7123888D01*
X7203515Y-7123888D02*
X7203515Y-7076269D01*
X7203515Y-7076269D02*
X7193991Y-7057222D01*
X7193991Y-7057222D02*
X7184468Y-7047698D01*
X7184468Y-7047698D02*
X7165420Y-7038174D01*
X7165420Y-7038174D02*
X7127325Y-7038174D01*
X7127325Y-7038174D02*
X7108277Y-7047698D01*
X7108277Y-7047698D02*
X7098753Y-7057222D01*
X7098753Y-7057222D02*
X7089229Y-7076269D01*
X7441610Y-7161984D02*
X7441610Y-6961984D01*
X7527325Y-7161984D02*
X7527325Y-7057222D01*
X7527325Y-7057222D02*
X7517801Y-7038174D01*
X7517801Y-7038174D02*
X7498753Y-7028650D01*
X7498753Y-7028650D02*
X7470182Y-7028650D01*
X7470182Y-7028650D02*
X7451134Y-7038174D01*
X7451134Y-7038174D02*
X7441610Y-7047698D01*
X7651134Y-7161984D02*
X7632087Y-7152460D01*
X7632087Y-7152460D02*
X7622563Y-7142936D01*
X7622563Y-7142936D02*
X7613039Y-7123888D01*
X7613039Y-7123888D02*
X7613039Y-7066746D01*
X7613039Y-7066746D02*
X7622563Y-7047698D01*
X7622563Y-7047698D02*
X7632087Y-7038174D01*
X7632087Y-7038174D02*
X7651134Y-7028650D01*
X7651134Y-7028650D02*
X7679706Y-7028650D01*
X7679706Y-7028650D02*
X7698753Y-7038174D01*
X7698753Y-7038174D02*
X7708277Y-7047698D01*
X7708277Y-7047698D02*
X7717801Y-7066746D01*
X7717801Y-7066746D02*
X7717801Y-7123888D01*
X7717801Y-7123888D02*
X7708277Y-7142936D01*
X7708277Y-7142936D02*
X7698753Y-7152460D01*
X7698753Y-7152460D02*
X7679706Y-7161984D01*
X7679706Y-7161984D02*
X7651134Y-7161984D01*
X7832087Y-7161984D02*
X7813039Y-7152460D01*
X7813039Y-7152460D02*
X7803515Y-7133412D01*
X7803515Y-7133412D02*
X7803515Y-6961984D01*
X7984468Y-7152460D02*
X7965420Y-7161984D01*
X7965420Y-7161984D02*
X7927325Y-7161984D01*
X7927325Y-7161984D02*
X7908277Y-7152460D01*
X7908277Y-7152460D02*
X7898753Y-7133412D01*
X7898753Y-7133412D02*
X7898753Y-7057222D01*
X7898753Y-7057222D02*
X7908277Y-7038174D01*
X7908277Y-7038174D02*
X7927325Y-7028650D01*
X7927325Y-7028650D02*
X7965420Y-7028650D01*
X7965420Y-7028650D02*
X7984468Y-7038174D01*
X7984468Y-7038174D02*
X7993991Y-7057222D01*
X7993991Y-7057222D02*
X7993991Y-7076269D01*
X7993991Y-7076269D02*
X7898753Y-7095317D01*
X8070182Y-7152460D02*
X8089230Y-7161984D01*
X8089230Y-7161984D02*
X8127325Y-7161984D01*
X8127325Y-7161984D02*
X8146372Y-7152460D01*
X8146372Y-7152460D02*
X8155896Y-7133412D01*
X8155896Y-7133412D02*
X8155896Y-7123888D01*
X8155896Y-7123888D02*
X8146372Y-7104841D01*
X8146372Y-7104841D02*
X8127325Y-7095317D01*
X8127325Y-7095317D02*
X8098753Y-7095317D01*
X8098753Y-7095317D02*
X8079706Y-7085793D01*
X8079706Y-7085793D02*
X8070182Y-7066746D01*
X8070182Y-7066746D02*
X8070182Y-7057222D01*
X8070182Y-7057222D02*
X8079706Y-7038174D01*
X8079706Y-7038174D02*
X8098753Y-7028650D01*
X8098753Y-7028650D02*
X8127325Y-7028650D01*
X8127325Y-7028650D02*
X8146372Y-7038174D01*
X8222563Y-7238174D02*
X8232087Y-7228650D01*
X8232087Y-7228650D02*
X8251134Y-7200079D01*
X8251134Y-7200079D02*
X8260658Y-7181031D01*
X8260658Y-7181031D02*
X8270182Y-7152460D01*
X8270182Y-7152460D02*
X8279706Y-7104841D01*
X8279706Y-7104841D02*
X8279706Y-7066746D01*
X8279706Y-7066746D02*
X8270182Y-7019127D01*
X8270182Y-7019127D02*
X8260658Y-6990555D01*
X8260658Y-6990555D02*
X8251134Y-6971508D01*
X8251134Y-6971508D02*
X8232087Y-6942936D01*
X8232087Y-6942936D02*
X8222563Y-6933412D01*
X3418211Y-7405211D02*
X3418211Y-7263789D01*
X3276789Y-7263789D01*
X3276789Y-7405211D01*
X3418211Y-7405211D01*
X3698753Y-7245031D02*
X3708277Y-7235508D01*
X3708277Y-7235508D02*
X3727324Y-7225984D01*
X3727324Y-7225984D02*
X3774943Y-7225984D01*
X3774943Y-7225984D02*
X3793991Y-7235508D01*
X3793991Y-7235508D02*
X3803515Y-7245031D01*
X3803515Y-7245031D02*
X3813039Y-7264079D01*
X3813039Y-7264079D02*
X3813039Y-7283127D01*
X3813039Y-7283127D02*
X3803515Y-7311698D01*
X3803515Y-7311698D02*
X3689229Y-7425984D01*
X3689229Y-7425984D02*
X3813039Y-7425984D01*
X3898753Y-7406936D02*
X3908277Y-7416460D01*
X3908277Y-7416460D02*
X3898753Y-7425984D01*
X3898753Y-7425984D02*
X3889229Y-7416460D01*
X3889229Y-7416460D02*
X3898753Y-7406936D01*
X3898753Y-7406936D02*
X3898753Y-7425984D01*
X4032086Y-7225984D02*
X4051134Y-7225984D01*
X4051134Y-7225984D02*
X4070182Y-7235508D01*
X4070182Y-7235508D02*
X4079705Y-7245031D01*
X4079705Y-7245031D02*
X4089229Y-7264079D01*
X4089229Y-7264079D02*
X4098753Y-7302174D01*
X4098753Y-7302174D02*
X4098753Y-7349793D01*
X4098753Y-7349793D02*
X4089229Y-7387888D01*
X4089229Y-7387888D02*
X4079705Y-7406936D01*
X4079705Y-7406936D02*
X4070182Y-7416460D01*
X4070182Y-7416460D02*
X4051134Y-7425984D01*
X4051134Y-7425984D02*
X4032086Y-7425984D01*
X4032086Y-7425984D02*
X4013039Y-7416460D01*
X4013039Y-7416460D02*
X4003515Y-7406936D01*
X4003515Y-7406936D02*
X3993991Y-7387888D01*
X3993991Y-7387888D02*
X3984467Y-7349793D01*
X3984467Y-7349793D02*
X3984467Y-7302174D01*
X3984467Y-7302174D02*
X3993991Y-7264079D01*
X3993991Y-7264079D02*
X4003515Y-7245031D01*
X4003515Y-7245031D02*
X4013039Y-7235508D01*
X4013039Y-7235508D02*
X4032086Y-7225984D01*
X4222563Y-7225984D02*
X4241610Y-7225984D01*
X4241610Y-7225984D02*
X4260658Y-7235508D01*
X4260658Y-7235508D02*
X4270182Y-7245031D01*
X4270182Y-7245031D02*
X4279705Y-7264079D01*
X4279705Y-7264079D02*
X4289229Y-7302174D01*
X4289229Y-7302174D02*
X4289229Y-7349793D01*
X4289229Y-7349793D02*
X4279705Y-7387888D01*
X4279705Y-7387888D02*
X4270182Y-7406936D01*
X4270182Y-7406936D02*
X4260658Y-7416460D01*
X4260658Y-7416460D02*
X4241610Y-7425984D01*
X4241610Y-7425984D02*
X4222563Y-7425984D01*
X4222563Y-7425984D02*
X4203515Y-7416460D01*
X4203515Y-7416460D02*
X4193991Y-7406936D01*
X4193991Y-7406936D02*
X4184467Y-7387888D01*
X4184467Y-7387888D02*
X4174943Y-7349793D01*
X4174943Y-7349793D02*
X4174943Y-7302174D01*
X4174943Y-7302174D02*
X4184467Y-7264079D01*
X4184467Y-7264079D02*
X4193991Y-7245031D01*
X4193991Y-7245031D02*
X4203515Y-7235508D01*
X4203515Y-7235508D02*
X4222563Y-7225984D01*
X4413039Y-7225984D02*
X4432086Y-7225984D01*
X4432086Y-7225984D02*
X4451134Y-7235508D01*
X4451134Y-7235508D02*
X4460658Y-7245031D01*
X4460658Y-7245031D02*
X4470182Y-7264079D01*
X4470182Y-7264079D02*
X4479705Y-7302174D01*
X4479705Y-7302174D02*
X4479705Y-7349793D01*
X4479705Y-7349793D02*
X4470182Y-7387888D01*
X4470182Y-7387888D02*
X4460658Y-7406936D01*
X4460658Y-7406936D02*
X4451134Y-7416460D01*
X4451134Y-7416460D02*
X4432086Y-7425984D01*
X4432086Y-7425984D02*
X4413039Y-7425984D01*
X4413039Y-7425984D02*
X4393991Y-7416460D01*
X4393991Y-7416460D02*
X4384467Y-7406936D01*
X4384467Y-7406936D02*
X4374944Y-7387888D01*
X4374944Y-7387888D02*
X4365420Y-7349793D01*
X4365420Y-7349793D02*
X4365420Y-7302174D01*
X4365420Y-7302174D02*
X4374944Y-7264079D01*
X4374944Y-7264079D02*
X4384467Y-7245031D01*
X4384467Y-7245031D02*
X4393991Y-7235508D01*
X4393991Y-7235508D02*
X4413039Y-7225984D01*
X4565420Y-7425984D02*
X4565420Y-7292650D01*
X4565420Y-7311698D02*
X4574944Y-7302174D01*
X4574944Y-7302174D02*
X4593991Y-7292650D01*
X4593991Y-7292650D02*
X4622563Y-7292650D01*
X4622563Y-7292650D02*
X4641610Y-7302174D01*
X4641610Y-7302174D02*
X4651134Y-7321222D01*
X4651134Y-7321222D02*
X4651134Y-7425984D01*
X4651134Y-7321222D02*
X4660658Y-7302174D01*
X4660658Y-7302174D02*
X4679705Y-7292650D01*
X4679705Y-7292650D02*
X4708277Y-7292650D01*
X4708277Y-7292650D02*
X4727325Y-7302174D01*
X4727325Y-7302174D02*
X4736848Y-7321222D01*
X4736848Y-7321222D02*
X4736848Y-7425984D01*
X4832086Y-7425984D02*
X4832086Y-7292650D01*
X4832086Y-7311698D02*
X4841610Y-7302174D01*
X4841610Y-7302174D02*
X4860658Y-7292650D01*
X4860658Y-7292650D02*
X4889229Y-7292650D01*
X4889229Y-7292650D02*
X4908277Y-7302174D01*
X4908277Y-7302174D02*
X4917801Y-7321222D01*
X4917801Y-7321222D02*
X4917801Y-7425984D01*
X4917801Y-7321222D02*
X4927325Y-7302174D01*
X4927325Y-7302174D02*
X4946372Y-7292650D01*
X4946372Y-7292650D02*
X4974944Y-7292650D01*
X4974944Y-7292650D02*
X4993991Y-7302174D01*
X4993991Y-7302174D02*
X5003515Y-7321222D01*
X5003515Y-7321222D02*
X5003515Y-7425984D01*
X5393991Y-7216460D02*
X5222563Y-7473603D01*
X5651134Y-7225984D02*
X5670182Y-7225984D01*
X5670182Y-7225984D02*
X5689229Y-7235508D01*
X5689229Y-7235508D02*
X5698753Y-7245031D01*
X5698753Y-7245031D02*
X5708277Y-7264079D01*
X5708277Y-7264079D02*
X5717801Y-7302174D01*
X5717801Y-7302174D02*
X5717801Y-7349793D01*
X5717801Y-7349793D02*
X5708277Y-7387888D01*
X5708277Y-7387888D02*
X5698753Y-7406936D01*
X5698753Y-7406936D02*
X5689229Y-7416460D01*
X5689229Y-7416460D02*
X5670182Y-7425984D01*
X5670182Y-7425984D02*
X5651134Y-7425984D01*
X5651134Y-7425984D02*
X5632086Y-7416460D01*
X5632086Y-7416460D02*
X5622563Y-7406936D01*
X5622563Y-7406936D02*
X5613039Y-7387888D01*
X5613039Y-7387888D02*
X5603515Y-7349793D01*
X5603515Y-7349793D02*
X5603515Y-7302174D01*
X5603515Y-7302174D02*
X5613039Y-7264079D01*
X5613039Y-7264079D02*
X5622563Y-7245031D01*
X5622563Y-7245031D02*
X5632086Y-7235508D01*
X5632086Y-7235508D02*
X5651134Y-7225984D01*
X5803515Y-7406936D02*
X5813039Y-7416460D01*
X5813039Y-7416460D02*
X5803515Y-7425984D01*
X5803515Y-7425984D02*
X5793991Y-7416460D01*
X5793991Y-7416460D02*
X5803515Y-7406936D01*
X5803515Y-7406936D02*
X5803515Y-7425984D01*
X5936848Y-7225984D02*
X5955896Y-7225984D01*
X5955896Y-7225984D02*
X5974944Y-7235508D01*
X5974944Y-7235508D02*
X5984467Y-7245031D01*
X5984467Y-7245031D02*
X5993991Y-7264079D01*
X5993991Y-7264079D02*
X6003515Y-7302174D01*
X6003515Y-7302174D02*
X6003515Y-7349793D01*
X6003515Y-7349793D02*
X5993991Y-7387888D01*
X5993991Y-7387888D02*
X5984467Y-7406936D01*
X5984467Y-7406936D02*
X5974944Y-7416460D01*
X5974944Y-7416460D02*
X5955896Y-7425984D01*
X5955896Y-7425984D02*
X5936848Y-7425984D01*
X5936848Y-7425984D02*
X5917801Y-7416460D01*
X5917801Y-7416460D02*
X5908277Y-7406936D01*
X5908277Y-7406936D02*
X5898753Y-7387888D01*
X5898753Y-7387888D02*
X5889229Y-7349793D01*
X5889229Y-7349793D02*
X5889229Y-7302174D01*
X5889229Y-7302174D02*
X5898753Y-7264079D01*
X5898753Y-7264079D02*
X5908277Y-7245031D01*
X5908277Y-7245031D02*
X5917801Y-7235508D01*
X5917801Y-7235508D02*
X5936848Y-7225984D01*
X6070182Y-7225984D02*
X6203515Y-7225984D01*
X6203515Y-7225984D02*
X6117801Y-7425984D01*
X6308277Y-7311698D02*
X6289229Y-7302174D01*
X6289229Y-7302174D02*
X6279706Y-7292650D01*
X6279706Y-7292650D02*
X6270182Y-7273603D01*
X6270182Y-7273603D02*
X6270182Y-7264079D01*
X6270182Y-7264079D02*
X6279706Y-7245031D01*
X6279706Y-7245031D02*
X6289229Y-7235508D01*
X6289229Y-7235508D02*
X6308277Y-7225984D01*
X6308277Y-7225984D02*
X6346372Y-7225984D01*
X6346372Y-7225984D02*
X6365420Y-7235508D01*
X6365420Y-7235508D02*
X6374944Y-7245031D01*
X6374944Y-7245031D02*
X6384467Y-7264079D01*
X6384467Y-7264079D02*
X6384467Y-7273603D01*
X6384467Y-7273603D02*
X6374944Y-7292650D01*
X6374944Y-7292650D02*
X6365420Y-7302174D01*
X6365420Y-7302174D02*
X6346372Y-7311698D01*
X6346372Y-7311698D02*
X6308277Y-7311698D01*
X6308277Y-7311698D02*
X6289229Y-7321222D01*
X6289229Y-7321222D02*
X6279706Y-7330746D01*
X6279706Y-7330746D02*
X6270182Y-7349793D01*
X6270182Y-7349793D02*
X6270182Y-7387888D01*
X6270182Y-7387888D02*
X6279706Y-7406936D01*
X6279706Y-7406936D02*
X6289229Y-7416460D01*
X6289229Y-7416460D02*
X6308277Y-7425984D01*
X6308277Y-7425984D02*
X6346372Y-7425984D01*
X6346372Y-7425984D02*
X6365420Y-7416460D01*
X6365420Y-7416460D02*
X6374944Y-7406936D01*
X6374944Y-7406936D02*
X6384467Y-7387888D01*
X6384467Y-7387888D02*
X6384467Y-7349793D01*
X6384467Y-7349793D02*
X6374944Y-7330746D01*
X6374944Y-7330746D02*
X6365420Y-7321222D01*
X6365420Y-7321222D02*
X6346372Y-7311698D01*
X6451134Y-7225984D02*
X6584467Y-7225984D01*
X6584467Y-7225984D02*
X6498753Y-7425984D01*
X6651134Y-7225984D02*
X6651134Y-7264079D01*
X6727325Y-7225984D02*
X6727325Y-7264079D01*
X7022563Y-7502174D02*
X7013039Y-7492650D01*
X7013039Y-7492650D02*
X6993991Y-7464079D01*
X6993991Y-7464079D02*
X6984468Y-7445031D01*
X6984468Y-7445031D02*
X6974944Y-7416460D01*
X6974944Y-7416460D02*
X6965420Y-7368841D01*
X6965420Y-7368841D02*
X6965420Y-7330746D01*
X6965420Y-7330746D02*
X6974944Y-7283127D01*
X6974944Y-7283127D02*
X6984468Y-7254555D01*
X6984468Y-7254555D02*
X6993991Y-7235508D01*
X6993991Y-7235508D02*
X7013039Y-7206936D01*
X7013039Y-7206936D02*
X7022563Y-7197412D01*
X7184468Y-7292650D02*
X7184468Y-7425984D01*
X7136848Y-7216460D02*
X7089229Y-7359317D01*
X7089229Y-7359317D02*
X7213039Y-7359317D01*
X7441610Y-7425984D02*
X7441610Y-7225984D01*
X7527325Y-7425984D02*
X7527325Y-7321222D01*
X7527325Y-7321222D02*
X7517801Y-7302174D01*
X7517801Y-7302174D02*
X7498753Y-7292650D01*
X7498753Y-7292650D02*
X7470182Y-7292650D01*
X7470182Y-7292650D02*
X7451134Y-7302174D01*
X7451134Y-7302174D02*
X7441610Y-7311698D01*
X7651134Y-7425984D02*
X7632087Y-7416460D01*
X7632087Y-7416460D02*
X7622563Y-7406936D01*
X7622563Y-7406936D02*
X7613039Y-7387888D01*
X7613039Y-7387888D02*
X7613039Y-7330746D01*
X7613039Y-7330746D02*
X7622563Y-7311698D01*
X7622563Y-7311698D02*
X7632087Y-7302174D01*
X7632087Y-7302174D02*
X7651134Y-7292650D01*
X7651134Y-7292650D02*
X7679706Y-7292650D01*
X7679706Y-7292650D02*
X7698753Y-7302174D01*
X7698753Y-7302174D02*
X7708277Y-7311698D01*
X7708277Y-7311698D02*
X7717801Y-7330746D01*
X7717801Y-7330746D02*
X7717801Y-7387888D01*
X7717801Y-7387888D02*
X7708277Y-7406936D01*
X7708277Y-7406936D02*
X7698753Y-7416460D01*
X7698753Y-7416460D02*
X7679706Y-7425984D01*
X7679706Y-7425984D02*
X7651134Y-7425984D01*
X7832087Y-7425984D02*
X7813039Y-7416460D01*
X7813039Y-7416460D02*
X7803515Y-7397412D01*
X7803515Y-7397412D02*
X7803515Y-7225984D01*
X7984468Y-7416460D02*
X7965420Y-7425984D01*
X7965420Y-7425984D02*
X7927325Y-7425984D01*
X7927325Y-7425984D02*
X7908277Y-7416460D01*
X7908277Y-7416460D02*
X7898753Y-7397412D01*
X7898753Y-7397412D02*
X7898753Y-7321222D01*
X7898753Y-7321222D02*
X7908277Y-7302174D01*
X7908277Y-7302174D02*
X7927325Y-7292650D01*
X7927325Y-7292650D02*
X7965420Y-7292650D01*
X7965420Y-7292650D02*
X7984468Y-7302174D01*
X7984468Y-7302174D02*
X7993991Y-7321222D01*
X7993991Y-7321222D02*
X7993991Y-7340269D01*
X7993991Y-7340269D02*
X7898753Y-7359317D01*
X8070182Y-7416460D02*
X8089230Y-7425984D01*
X8089230Y-7425984D02*
X8127325Y-7425984D01*
X8127325Y-7425984D02*
X8146372Y-7416460D01*
X8146372Y-7416460D02*
X8155896Y-7397412D01*
X8155896Y-7397412D02*
X8155896Y-7387888D01*
X8155896Y-7387888D02*
X8146372Y-7368841D01*
X8146372Y-7368841D02*
X8127325Y-7359317D01*
X8127325Y-7359317D02*
X8098753Y-7359317D01*
X8098753Y-7359317D02*
X8079706Y-7349793D01*
X8079706Y-7349793D02*
X8070182Y-7330746D01*
X8070182Y-7330746D02*
X8070182Y-7321222D01*
X8070182Y-7321222D02*
X8079706Y-7302174D01*
X8079706Y-7302174D02*
X8098753Y-7292650D01*
X8098753Y-7292650D02*
X8127325Y-7292650D01*
X8127325Y-7292650D02*
X8146372Y-7302174D01*
X8222563Y-7502174D02*
X8232087Y-7492650D01*
X8232087Y-7492650D02*
X8251134Y-7464079D01*
X8251134Y-7464079D02*
X8260658Y-7445031D01*
X8260658Y-7445031D02*
X8270182Y-7416460D01*
X8270182Y-7416460D02*
X8279706Y-7368841D01*
X8279706Y-7368841D02*
X8279706Y-7330746D01*
X8279706Y-7330746D02*
X8270182Y-7283127D01*
X8270182Y-7283127D02*
X8260658Y-7254555D01*
X8260658Y-7254555D02*
X8251134Y-7235508D01*
X8251134Y-7235508D02*
X8232087Y-7206936D01*
X8232087Y-7206936D02*
X8222563Y-7197412D01*
M02*
