M48
; DRILL file {KiCad 9.0.4} date 2025-11-25T15:00:27-0300
; FORMAT={-:-/ absolute / metric / decimal}
; #@! TF.CreationDate,2025-11-25T15:00:27-03:00
; #@! TF.GenerationSoftware,Kicad,Pcbnew,9.0.4
; #@! TF.FileFunction,Plated,1,2,PTH
FMAT,2
METRIC
; #@! TA.AperFunction,Plated,PTH,ComponentDrill
T1C0.800
; #@! TA.AperFunction,Plated,PTH,ComponentDrill
T2C1.100
; #@! TA.AperFunction,Plated,PTH,ComponentDrill
T3C1.400
; #@! TA.AperFunction,Plated,PTH,ComponentDrill
T4C2.000
%
G90
G05
T1
X84.0Y-23.403
X84.0Y-28.403
X94.0Y-23.403
X94.0Y-28.403
X104.54Y-25.98
X104.58Y-32.48
X106.87Y-37.42
X106.87Y-47.58
X107.08Y-25.98
X107.12Y-32.48
X109.62Y-25.98
X109.66Y-32.48
X111.87Y-37.5
X111.87Y-47.66
X116.25Y-29.42
X116.25Y-31.96
X116.25Y-34.5
X116.25Y-37.04
X116.25Y-39.58
X116.25Y-42.12
X116.25Y-44.66
X116.25Y-47.2
X118.29Y-53.5
X120.83Y-53.5
X123.37Y-53.5
X123.87Y-29.42
X123.87Y-31.96
X123.87Y-34.5
X123.87Y-37.04
X123.87Y-39.58
X123.87Y-42.12
X123.87Y-44.66
X123.87Y-47.2
X129.37Y-30.5
X129.87Y-34.42
X129.87Y-44.58
X134.37Y-30.5
X134.37Y-34.42
X134.37Y-44.58
T2
X85.42Y-41.0
X87.96Y-41.0
X90.5Y-41.0
T3
X50.0Y-23.0
X55.0Y-23.0
X63.0Y-23.0
X68.0Y-23.0
X132.87Y-50.5
X132.87Y-55.5
T4
X43.0Y-31.75
X63.0Y-31.75
X78.5Y-35.0
X93.75Y-35.0
M30
