%TF.GenerationSoftware,KiCad,Pcbnew,9.0.4*%
%TF.CreationDate,2025-11-25T15:00:27-03:00*%
%TF.ProjectId,Conversor Boost-MCC. Andr__ Nicollas e Vinicius,436f6e76-6572-4736-9f72-20426f6f7374,rev?*%
%TF.SameCoordinates,Original*%
%TF.FileFunction,Drillmap*%
%TF.FilePolarity,Positive*%
%FSLAX45Y45*%
G04 Gerber Fmt 4.5, Leading zero omitted, Abs format (unit mm)*
G04 Created by KiCad (PCBNEW 9.0.4) date 2025-11-25 15:00:27*
%MOMM*%
%LPD*%
G01*
G04 APERTURE LIST*
%ADD10C,0.050000*%
%ADD11C,0.200000*%
G04 APERTURE END LIST*
D10*
X3450000Y-1800000D02*
X13800000Y-1800000D01*
X13800000Y-5900000D01*
X3450000Y-5900000D01*
X3450000Y-1800000D01*
D11*
X3708277Y-6213984D02*
X3708277Y-6013984D01*
X3708277Y-6013984D02*
X3755896Y-6013984D01*
X3755896Y-6013984D02*
X3784467Y-6023508D01*
X3784467Y-6023508D02*
X3803515Y-6042555D01*
X3803515Y-6042555D02*
X3813039Y-6061603D01*
X3813039Y-6061603D02*
X3822562Y-6099698D01*
X3822562Y-6099698D02*
X3822562Y-6128269D01*
X3822562Y-6128269D02*
X3813039Y-6166365D01*
X3813039Y-6166365D02*
X3803515Y-6185412D01*
X3803515Y-6185412D02*
X3784467Y-6204460D01*
X3784467Y-6204460D02*
X3755896Y-6213984D01*
X3755896Y-6213984D02*
X3708277Y-6213984D01*
X3908277Y-6213984D02*
X3908277Y-6080650D01*
X3908277Y-6118746D02*
X3917801Y-6099698D01*
X3917801Y-6099698D02*
X3927324Y-6090174D01*
X3927324Y-6090174D02*
X3946372Y-6080650D01*
X3946372Y-6080650D02*
X3965420Y-6080650D01*
X4032086Y-6213984D02*
X4032086Y-6080650D01*
X4032086Y-6013984D02*
X4022562Y-6023508D01*
X4022562Y-6023508D02*
X4032086Y-6033031D01*
X4032086Y-6033031D02*
X4041610Y-6023508D01*
X4041610Y-6023508D02*
X4032086Y-6013984D01*
X4032086Y-6013984D02*
X4032086Y-6033031D01*
X4155896Y-6213984D02*
X4136848Y-6204460D01*
X4136848Y-6204460D02*
X4127324Y-6185412D01*
X4127324Y-6185412D02*
X4127324Y-6013984D01*
X4260658Y-6213984D02*
X4241610Y-6204460D01*
X4241610Y-6204460D02*
X4232086Y-6185412D01*
X4232086Y-6185412D02*
X4232086Y-6013984D01*
X4489229Y-6213984D02*
X4489229Y-6013984D01*
X4489229Y-6013984D02*
X4555896Y-6156841D01*
X4555896Y-6156841D02*
X4622563Y-6013984D01*
X4622563Y-6013984D02*
X4622563Y-6213984D01*
X4803515Y-6213984D02*
X4803515Y-6109222D01*
X4803515Y-6109222D02*
X4793991Y-6090174D01*
X4793991Y-6090174D02*
X4774944Y-6080650D01*
X4774944Y-6080650D02*
X4736848Y-6080650D01*
X4736848Y-6080650D02*
X4717801Y-6090174D01*
X4803515Y-6204460D02*
X4784467Y-6213984D01*
X4784467Y-6213984D02*
X4736848Y-6213984D01*
X4736848Y-6213984D02*
X4717801Y-6204460D01*
X4717801Y-6204460D02*
X4708277Y-6185412D01*
X4708277Y-6185412D02*
X4708277Y-6166365D01*
X4708277Y-6166365D02*
X4717801Y-6147317D01*
X4717801Y-6147317D02*
X4736848Y-6137793D01*
X4736848Y-6137793D02*
X4784467Y-6137793D01*
X4784467Y-6137793D02*
X4803515Y-6128269D01*
X4898753Y-6080650D02*
X4898753Y-6280650D01*
X4898753Y-6090174D02*
X4917801Y-6080650D01*
X4917801Y-6080650D02*
X4955896Y-6080650D01*
X4955896Y-6080650D02*
X4974944Y-6090174D01*
X4974944Y-6090174D02*
X4984467Y-6099698D01*
X4984467Y-6099698D02*
X4993991Y-6118746D01*
X4993991Y-6118746D02*
X4993991Y-6175888D01*
X4993991Y-6175888D02*
X4984467Y-6194936D01*
X4984467Y-6194936D02*
X4974944Y-6204460D01*
X4974944Y-6204460D02*
X4955896Y-6213984D01*
X4955896Y-6213984D02*
X4917801Y-6213984D01*
X4917801Y-6213984D02*
X4898753Y-6204460D01*
X5079705Y-6194936D02*
X5089229Y-6204460D01*
X5089229Y-6204460D02*
X5079705Y-6213984D01*
X5079705Y-6213984D02*
X5070182Y-6204460D01*
X5070182Y-6204460D02*
X5079705Y-6194936D01*
X5079705Y-6194936D02*
X5079705Y-6213984D01*
X5079705Y-6090174D02*
X5089229Y-6099698D01*
X5089229Y-6099698D02*
X5079705Y-6109222D01*
X5079705Y-6109222D02*
X5070182Y-6099698D01*
X5070182Y-6099698D02*
X5079705Y-6090174D01*
X5079705Y-6090174D02*
X5079705Y-6109222D01*
M02*
