%TF.GenerationSoftware,KiCad,Pcbnew,9.0.4*%
%TF.CreationDate,2025-11-25T15:00:47-03:00*%
%TF.ProjectId,Conversor Boost-MCC. Andr__ Nicollas e Vinicius,436f6e76-6572-4736-9f72-20426f6f7374,rev?*%
%TF.SameCoordinates,Original*%
%TF.FileFunction,Copper,L1,Top*%
%TF.FilePolarity,Positive*%
%FSLAX46Y46*%
G04 Gerber Fmt 4.6, Leading zero omitted, Abs format (unit mm)*
G04 Created by KiCad (PCBNEW 9.0.4) date 2025-11-25 15:00:47*
%MOMM*%
%LPD*%
G01*
G04 APERTURE LIST*
G04 Aperture macros list*
%AMRoundRect*
0 Rectangle with rounded corners*
0 $1 Rounding radius*
0 $2 $3 $4 $5 $6 $7 $8 $9 X,Y pos of 4 corners*
0 Add a 4 corners polygon primitive as box body*
4,1,4,$2,$3,$4,$5,$6,$7,$8,$9,$2,$3,0*
0 Add four circle primitives for the rounded corners*
1,1,$1+$1,$2,$3*
1,1,$1+$1,$4,$5*
1,1,$1+$1,$6,$7*
1,1,$1+$1,$8,$9*
0 Add four rect primitives between the rounded corners*
20,1,$1+$1,$2,$3,$4,$5,0*
20,1,$1+$1,$4,$5,$6,$7,0*
20,1,$1+$1,$6,$7,$8,$9,0*
20,1,$1+$1,$8,$9,$2,$3,0*%
G04 Aperture macros list end*
%TA.AperFunction,ComponentPad*%
%ADD10C,3.000000*%
%TD*%
%TA.AperFunction,ComponentPad*%
%ADD11RoundRect,0.250000X0.550000X-0.550000X0.550000X0.550000X-0.550000X0.550000X-0.550000X-0.550000X0*%
%TD*%
%TA.AperFunction,ComponentPad*%
%ADD12C,1.600000*%
%TD*%
%TA.AperFunction,ComponentPad*%
%ADD13C,2.540000*%
%TD*%
%TA.AperFunction,ComponentPad*%
%ADD14O,1.905000X2.000000*%
%TD*%
%TA.AperFunction,ComponentPad*%
%ADD15C,1.905000*%
%TD*%
%TA.AperFunction,ComponentPad*%
%ADD16C,1.440000*%
%TD*%
%TA.AperFunction,ComponentPad*%
%ADD17RoundRect,0.250000X0.550000X0.550000X-0.550000X0.550000X-0.550000X-0.550000X0.550000X-0.550000X0*%
%TD*%
%TA.AperFunction,ComponentPad*%
%ADD18C,1.500000*%
%TD*%
%TA.AperFunction,ComponentPad*%
%ADD19R,1.500000X1.500000*%
%TD*%
%TA.AperFunction,ComponentPad*%
%ADD20C,3.500000*%
%TD*%
G04 APERTURE END LIST*
D10*
%TO.P,D1,2,A*%
%TO.N,/Dreno*%
X78500000Y-35000000D03*
%TO.P,D1,1,K*%
%TO.N,+24V*%
X93750000Y-35000000D03*
%TD*%
D11*
%TO.P,C1,1*%
%TO.N,+24V*%
X84000000Y-28402651D03*
D12*
%TO.P,C1,2*%
%TO.N,GNDPWR*%
X84000000Y-23402651D03*
%TD*%
%TO.P,C2,2*%
%TO.N,GNDPWR*%
X94000000Y-23402651D03*
D11*
%TO.P,C2,1*%
%TO.N,+24V*%
X94000000Y-28402651D03*
%TD*%
D13*
%TO.P,J3,2,Pin_2*%
%TO.N,GNDPWR*%
X68000000Y-23000000D03*
%TO.P,J3,1,Pin_1*%
%TO.N,+24V*%
X63000000Y-23000000D03*
%TD*%
D14*
%TO.P,Q1,3,S*%
%TO.N,GNDPWR*%
X85420000Y-41000000D03*
D15*
%TO.P,Q1,2,G*%
%TO.N,/Driver*%
X90500000Y-41000000D03*
D14*
%TO.P,Q1,1,D*%
%TO.N,/Dreno*%
X87960000Y-41000000D03*
%TD*%
D16*
%TO.P,RV1,3,3*%
%TO.N,GND*%
X123370000Y-53500000D03*
%TO.P,RV1,2,2*%
%TO.N,Net-(U1-IN)*%
X120830000Y-53500000D03*
%TO.P,RV1,1,1*%
%TO.N,Net-(U1-V_REF)*%
X118290000Y-53500000D03*
%TD*%
D12*
%TO.P,R1,2*%
%TO.N,Net-(R1-Pad2)*%
X129870000Y-44580000D03*
%TO.P,R1,1*%
%TO.N,Net-(U1-RT)*%
X129870000Y-34420000D03*
%TD*%
%TO.P,U1,16,V_REF*%
%TO.N,Net-(U1-V_REF)*%
X116250000Y-47200000D03*
%TO.P,U1,15,V_IN*%
%TO.N,+15V*%
X116250000Y-44660000D03*
%TO.P,U1,14,Eb*%
%TO.N,GND*%
X116250000Y-42120000D03*
%TO.P,U1,13,Cb*%
%TO.N,Net-(Q2-B)*%
X116250000Y-39580000D03*
%TO.P,U1,12,Ea*%
X116250000Y-37040000D03*
%TO.P,U1,11,Ca*%
%TO.N,GND*%
X116250000Y-34500000D03*
%TO.P,U1,10,S/D*%
%TO.N,unconnected-(U1-S{slash}D-Pad10)*%
X116250000Y-31960000D03*
%TO.P,U1,9,COMP*%
%TO.N,Net-(U1-COMP)*%
X116250000Y-29420000D03*
%TO.P,U1,8,GND*%
%TO.N,GND*%
X123870000Y-29420000D03*
%TO.P,U1,7,CT*%
%TO.N,Net-(U1-CT)*%
X123870000Y-31960000D03*
%TO.P,U1,6,RT*%
%TO.N,Net-(U1-RT)*%
X123870000Y-34500000D03*
%TO.P,U1,5,CLSENSE-*%
%TO.N,GND*%
X123870000Y-37040000D03*
%TO.P,U1,4,CLSENSE+*%
X123870000Y-39580000D03*
%TO.P,U1,3,OSC_OUT*%
%TO.N,unconnected-(U1-OSC_OUT-Pad3)*%
X123870000Y-42120000D03*
%TO.P,U1,2,IN*%
%TO.N,Net-(U1-IN)*%
X123870000Y-44660000D03*
D17*
%TO.P,U1,1,INV_IN*%
%TO.N,Net-(U1-COMP)*%
X123870000Y-47200000D03*
%TD*%
D12*
%TO.P,R4,2*%
%TO.N,/Driver*%
X106870000Y-47580000D03*
%TO.P,R4,1*%
%TO.N,Net-(Q2-E)*%
X106870000Y-37420000D03*
%TD*%
%TO.P,R2,2*%
%TO.N,GND*%
X134370000Y-34420000D03*
%TO.P,R2,1*%
%TO.N,Net-(R1-Pad2)*%
X134370000Y-44580000D03*
%TD*%
%TO.P,R3,2*%
%TO.N,Net-(Q2-B)*%
X111870000Y-37500000D03*
%TO.P,R3,1*%
%TO.N,+15V*%
X111870000Y-47660000D03*
%TD*%
D13*
%TO.P,J2,2,Pin_2*%
%TO.N,GND*%
X132870000Y-50500000D03*
%TO.P,J2,1,Pin_1*%
%TO.N,+15V*%
X132870000Y-55500000D03*
%TD*%
D12*
%TO.P,C3,2*%
%TO.N,GND*%
X134370000Y-30500000D03*
%TO.P,C3,1*%
%TO.N,Net-(U1-CT)*%
X129370000Y-30500000D03*
%TD*%
D18*
%TO.P,Q3,3,E*%
%TO.N,Net-(Q2-E)*%
X104580000Y-32480000D03*
%TO.P,Q3,2,B*%
%TO.N,Net-(Q2-B)*%
X107120000Y-32480000D03*
D19*
%TO.P,Q3,1,C*%
%TO.N,+15V*%
X109660000Y-32480000D03*
%TD*%
D18*
%TO.P,Q2,3,E*%
%TO.N,Net-(Q2-E)*%
X104540000Y-25980000D03*
%TO.P,Q2,2,B*%
%TO.N,Net-(Q2-B)*%
X107080000Y-25980000D03*
D19*
%TO.P,Q2,1,C*%
%TO.N,GND*%
X109620000Y-25980000D03*
%TD*%
D20*
%TO.P,L1,1,1*%
%TO.N,/Dreno*%
X63000000Y-31750000D03*
%TO.P,L1,2,2*%
%TO.N,+12V*%
X43000000Y-31750000D03*
%TD*%
D13*
%TO.P,J1,1,Pin_1*%
%TO.N,+12V*%
X50000000Y-23000000D03*
%TO.P,J1,2,Pin_2*%
%TO.N,GNDPWR*%
X55000000Y-23000000D03*
%TD*%
M02*
